<svg xmlns="http://www.w3.org/2000/svg" viewBox="272 -27 932 932" width="932" height="932">
<g fill="None" fill-opacity="0.0" stroke="#0074B7" stroke-opacity="1.00" stroke-width="0.3"><path d=" M 599.00 198.00  C 474.88 94.18 281.54 236.63 327.22 378.78 C 372.90 520.93 510.80 534.51 603.00 632.00 C 563.90 605.48 523.73 579.92 482.00 558.00 C 523.06 592.79 571.32 622.28 605.00 666.00 C 627.42 605.19 553.66 568.87 509.75 533.25 C 465.83 497.64 413.12 466.98 385.77 411.23 C 358.42 355.48 361.02 274.75 412.25 229.25 C 463.47 183.75 535.41 170.04 599.00 198.00 Z" />
</g>
<g fill="None" fill-opacity="0.0" stroke="#0074B7" stroke-opacity="1.00" stroke-width="0.3"><path d=" M 783.00 185.00  C 777.58 182.97 769.48 181.66 766.00 177.00 C 772.73 177.18 778.66 172.07 786.00 173.00 C 732.14 158.35 665.68 167.30 625.00 207.00 C 693.34 173.74 783.23 179.69 840.00 234.00 C 826.52 211.54 802.90 196.60 780.00 186.00 C 780.27 184.58 782.00 185.03 783.00 185.00 Z" />
</g>
<g fill="None" fill-opacity="0.0" stroke="#00ACE5" stroke-opacity="1.00" stroke-width="0.3"><path d=" M 783.00 185.00  C 909.14 232.14 902.87 390.95 831.00 482.00 C 828.08 487.00 821.36 494.32 818.00 500.00 C 821.53 501.44 822.70 500.91 823.00 497.00 C 826.75 495.90 824.16 500.05 828.00 499.00 C 824.09 500.81 830.13 502.10 832.00 503.00 C 827.22 507.69 835.98 509.49 839.00 507.00 C 839.38 509.78 842.21 511.09 844.00 513.00 C 850.95 507.32 857.82 498.48 865.00 492.00 C 890.98 457.07 910.26 416.46 917.02 374.02 C 923.79 331.59 915.06 271.32 888.30 239.70 C 861.54 208.08 827.62 172.88 786.00 173.00 C 778.66 172.07 772.73 177.18 766.00 177.00 C 769.48 181.66 777.58 182.97 783.00 185.00 Z" />
</g>
<g fill="None" fill-opacity="0.0" stroke="#0074B7" stroke-opacity="1.00" stroke-width="0.3"><path d=" M 617.00 332.00  C 626.15 335.73 604.23 355.26 602.75 362.75 C 601.26 370.23 581.94 385.10 582.00 393.00 C 585.01 396.59 586.79 401.49 590.00 405.00 C 597.14 395.95 604.86 386.34 610.00 376.00 C 614.00 368.90 619.28 362.34 624.00 356.00 C 646.09 318.79 662.02 342.66 681.00 370.00 C 706.09 343.77 729.06 315.57 754.00 289.00 C 745.07 282.90 734.78 278.42 727.00 271.00 C 752.75 263.83 778.25 255.91 804.00 249.00 C 800.96 276.07 797.14 302.94 794.00 330.00 C 784.37 324.23 779.62 310.76 770.00 305.00 C 763.69 313.50 754.76 320.24 749.00 329.00 C 728.14 358.20 688.56 418.18 660.00 379.00 C 655.63 373.00 651.26 364.78 645.00 362.00 C 631.75 387.50 621.19 397.30 605.25 423.25 C 589.30 449.19 565.38 412.45 556.00 394.00 C 527.92 423.36 501.68 454.51 475.00 485.00 C 480.45 487.04 486.73 489.50 493.00 490.00 C 491.11 489.66 488.66 486.88 486.00 488.00 C 508.75 462.91 530.15 436.65 553.00 412.00 C 556.43 432.23 559.36 456.62 563.00 475.00 C 564.29 474.83 564.75 473.30 566.00 473.00 C 579.98 506.54 621.97 503.76 645.25 520.75 C 668.53 537.75 681.17 585.62 716.00 564.00 C 711.53 549.33 701.42 536.61 697.00 522.00 C 728.80 522.62 760.33 503.27 772.00 473.00 C 797.59 480.11 822.12 468.71 839.25 449.25 C 856.37 429.78 856.87 398.42 847.75 376.25 C 838.63 354.08 849.62 323.47 822.08 308.92 C 794.54 294.37 815.84 262.76 814.00 237.00 C 790.65 238.04 793.35 249.94 767.68 250.68 C 742.00 251.42 712.34 218.54 683.00 220.00 C 653.66 221.46 653.55 217.91 631.70 226.70 C 609.84 235.48 628.14 264.02 622.00 277.00 C 615.86 289.98 632.13 327.94 617.00 332.00 M 792.00 374.00  C 795.83 374.46 831.27 385.95 821.67 396.67 C 812.07 407.39 801.22 383.13 784.00 388.00 C 766.78 392.87 766.37 370.90 792.00 374.00 M 751.00 412.00  C 780.54 414.86 779.70 445.37 757.92 427.08 C 736.15 408.78 715.20 455.74 704.75 441.25 C 694.31 426.76 740.38 410.97 751.00 412.00 M 673.00 447.00  C 684.44 451.81 662.48 466.29 650.98 470.98 C 639.47 475.66 614.16 456.01 634.00 458.00 C 653.84 459.99 660.06 441.56 673.00 447.00 Z" />
</g>
<g fill="None" fill-opacity="0.0" stroke="#00ACE5" stroke-opacity="1.00" stroke-width="0.3"><path d=" M 530.00 230.00  C 524.66 233.10 520.10 238.23 515.00 242.00 C 515.79 246.27 521.13 248.22 523.00 252.00 C 536.58 261.64 519.77 318.68 514.00 272.00 C 508.23 225.32 432.22 257.94 430.00 295.00 C 441.12 292.49 475.66 308.47 469.99 322.99 C 464.32 337.51 443.86 304.89 428.00 309.00 C 412.14 313.11 394.05 320.18 388.31 337.31 C 382.57 354.43 380.06 378.40 390.08 391.92 C 400.09 405.45 425.37 414.41 440.92 402.92 C 456.47 391.43 475.45 390.42 457.08 409.08 C 438.71 427.74 424.49 417.14 404.00 417.00 C 410.02 425.09 414.73 434.73 422.00 442.00 C 429.45 449.45 436.75 459.22 445.00 466.00 C 448.63 468.54 452.15 472.25 456.00 475.00 C 452.89 465.04 480.18 449.39 485.75 438.75 C 491.32 428.11 507.46 415.08 516.75 403.75 C 526.04 392.43 535.97 380.91 547.75 368.75 C 559.53 356.60 574.90 384.52 582.00 393.00 C 581.94 385.10 601.26 370.23 602.75 362.75 C 604.23 355.26 626.15 335.73 617.00 332.00 C 610.98 333.62 607.41 328.65 606.00 324.00 C 597.68 296.59 609.39 261.79 605.00 233.00 C 597.66 207.06 546.07 222.40 530.00 230.00 M 570.00 310.00  C 585.66 316.37 553.80 324.84 546.98 326.98 C 540.15 329.11 526.38 337.98 521.75 348.75 C 517.12 359.52 498.38 359.73 509.30 343.30 C 520.23 326.88 547.25 300.74 570.00 310.00 Z" />
</g>
<g fill="None" fill-opacity="0.0" stroke="#0074B7" stroke-opacity="1.00" stroke-width="0.3"><path d=" M 523.00 252.00  C 521.13 248.22 515.79 246.27 515.00 242.00 C 520.10 238.23 524.66 233.10 530.00 230.00 C 523.65 232.32 517.12 237.91 514.00 244.00 C 516.56 246.67 520.69 249.05 523.00 252.00 Z" />
</g>
<g fill="None" fill-opacity="0.0" stroke="#0074B7" stroke-opacity="1.00" stroke-width="0.3"><path d=" M 606.00 324.00  C 601.10 295.00 612.89 260.87 605.00 233.00 C 609.39 261.79 597.68 296.59 606.00 324.00 Z" />
</g>
<g fill="None" fill-opacity="0.0" stroke="#E4ECEE" stroke-opacity="1.00" stroke-width="0.3"><path d=" M 624.00 356.00  C 619.78 363.11 614.68 369.45 610.00 376.00 C 604.86 386.34 597.14 395.95 590.00 405.00 C 586.79 401.49 585.01 396.59 582.00 393.00 C 574.90 384.52 559.53 356.60 547.75 368.75 C 535.97 380.91 526.04 392.43 516.75 403.75 C 507.46 415.08 491.32 428.11 485.75 438.75 C 480.18 449.39 452.89 465.04 456.00 475.00 C 461.99 479.28 468.29 482.49 475.00 485.00 C 501.68 454.51 527.92 423.36 556.00 394.00 C 565.38 412.45 589.30 449.19 605.25 423.25 C 621.19 397.30 631.75 387.50 645.00 362.00 C 651.26 364.78 655.63 373.00 660.00 379.00 C 692.35 413.99 724.46 358.29 749.00 329.00 C 754.76 320.24 763.69 313.50 770.00 305.00 C 779.62 310.76 784.37 324.23 794.00 330.00 C 797.14 302.94 800.96 276.07 804.00 249.00 C 778.25 255.91 752.75 263.83 727.00 271.00 C 734.78 278.42 745.07 282.90 754.00 289.00 C 729.06 315.57 706.09 343.77 681.00 370.00 C 662.02 342.66 646.09 318.79 624.00 356.00 Z" />
</g>
<g fill="None" fill-opacity="0.0" stroke="#00ACE5" stroke-opacity="1.00" stroke-width="0.3"><path d=" M 660.00 379.00  C 688.56 418.18 728.14 358.20 749.00 329.00 C 724.46 358.29 692.35 413.99 660.00 379.00 Z" />
</g>
<g fill="None" fill-opacity="0.0" stroke="#00ACE5" stroke-opacity="1.00" stroke-width="0.3"><path d=" M 610.00 376.00  C 614.68 369.45 619.78 363.11 624.00 356.00 C 619.28 362.34 614.00 368.90 610.00 376.00 Z" />
</g>
<g fill="None" fill-opacity="0.0" stroke="#00ACE5" stroke-opacity="1.00" stroke-width="0.3"><path d=" M 792.00 374.00  C 766.37 370.90 766.78 392.87 784.00 388.00 C 801.22 383.13 812.07 407.39 821.67 396.67 C 831.27 385.95 795.83 374.46 792.00 374.00 Z" />
</g>
<g fill="None" fill-opacity="0.0" stroke="#00ACE5" stroke-opacity="1.00" stroke-width="0.3"><path d=" M 493.00 490.00  C 519.95 492.14 539.75 484.96 563.00 475.00 C 559.36 456.62 556.43 432.23 553.00 412.00 C 530.15 436.65 508.75 462.91 486.00 488.00 C 488.66 486.88 491.11 489.66 493.00 490.00 Z" />
</g>
<g fill="None" fill-opacity="0.0" stroke="#00ACE5" stroke-opacity="1.00" stroke-width="0.3"><path d=" M 751.00 412.00  C 740.38 410.97 694.31 426.76 704.75 441.25 C 715.20 455.74 736.15 408.78 757.92 427.08 C 779.70 445.37 780.54 414.86 751.00 412.00 Z" />
</g>
<g fill="None" fill-opacity="0.0" stroke="#0074B7" stroke-opacity="1.00" stroke-width="0.3"><path d=" M 445.00 466.00  C 436.75 459.22 429.45 449.45 422.00 442.00 C 427.84 450.18 436.51 460.05 445.00 466.00 Z" />
</g>
<g fill="None" fill-opacity="0.0" stroke="#00ACE5" stroke-opacity="1.00" stroke-width="0.3"><path d=" M 673.00 447.00  C 660.06 441.56 653.84 459.99 634.00 458.00 C 614.16 456.01 639.47 475.66 650.98 470.98 C 662.48 466.29 684.44 451.81 673.00 447.00 Z" />
</g>
<g fill="None" fill-opacity="0.0" stroke="#0074B7" stroke-opacity="1.00" stroke-width="0.3"><path d=" M 865.00 492.00  C 857.82 498.48 850.95 507.32 844.00 513.00 C 842.21 511.09 839.38 509.78 839.00 507.00 C 835.98 509.49 827.22 507.69 832.00 503.00 C 830.13 502.10 824.09 500.81 828.00 499.00 C 824.16 500.05 826.75 495.90 823.00 497.00 C 822.70 500.91 821.53 501.44 818.00 500.00 C 821.36 494.32 828.08 487.00 831.00 482.00 C 800.80 523.00 754.85 550.38 714.23 576.23 C 673.61 602.08 610.38 628.50 614.00 685.00 C 681.47 601.79 797.87 582.28 865.00 492.00 Z" />
</g>
<g fill="None" fill-opacity="0.0" stroke="#0074B7" stroke-opacity="1.00" stroke-width="0.3"><path d=" M 1194.00 763.00  C 1184.54 758.36 1174.44 748.66 1170.00 739.00 C 1167.31 749.36 1158.31 758.17 1148.00 761.00 C 1157.66 765.45 1167.36 775.53 1172.00 785.00 C 1173.43 774.43 1183.44 764.45 1194.00 763.00 Z" />
</g>
<g fill="#0074B7" fill-opacity="1.00" stroke="None">
<path d=" M 599.00 198.00  C 474.88 94.18 281.54 236.63 327.22 378.78 C 372.90 520.93 510.80 534.51 603.00 632.00 C 563.90 605.48 523.73 579.92 482.00 558.00 C 523.06 592.79 571.32 622.28 605.00 666.00 C 627.42 605.19 553.66 568.87 509.75 533.25 C 465.83 497.64 413.12 466.98 385.77 411.23 C 358.42 355.48 361.02 274.75 412.25 229.25 C 463.47 183.75 535.41 170.04 599.00 198.00 Z" />
</g>
<g fill="#0074B7" fill-opacity="1.00" stroke="None">
<path d=" M 783.00 185.00  C 777.58 182.97 769.48 181.66 766.00 177.00 C 772.73 177.18 778.66 172.07 786.00 173.00 C 732.14 158.35 665.68 167.30 625.00 207.00 C 693.34 173.74 783.23 179.69 840.00 234.00 C 826.52 211.54 802.90 196.60 780.00 186.00 C 780.27 184.58 782.00 185.03 783.00 185.00 Z" />
</g>
<g fill="#00ACE5" fill-opacity="1.00" stroke="None">
<path d=" M 783.00 185.00  C 909.14 232.14 902.87 390.95 831.00 482.00 C 828.08 487.00 821.36 494.32 818.00 500.00 C 821.53 501.44 822.70 500.91 823.00 497.00 C 826.75 495.90 824.16 500.05 828.00 499.00 C 824.09 500.81 830.13 502.10 832.00 503.00 C 827.22 507.69 835.98 509.49 839.00 507.00 C 839.38 509.78 842.21 511.09 844.00 513.00 C 850.95 507.32 857.82 498.48 865.00 492.00 C 890.98 457.07 910.26 416.46 917.02 374.02 C 923.79 331.59 915.06 271.32 888.30 239.70 C 861.54 208.08 827.62 172.88 786.00 173.00 C 778.66 172.07 772.73 177.18 766.00 177.00 C 769.48 181.66 777.58 182.97 783.00 185.00 Z" />
</g>
<g fill="#0074B7" fill-opacity="1.00" stroke="None">
<path d=" M 617.00 332.00  C 626.15 335.73 604.23 355.26 602.75 362.75 C 601.26 370.23 581.94 385.10 582.00 393.00 C 585.01 396.59 586.79 401.49 590.00 405.00 C 597.14 395.95 604.86 386.34 610.00 376.00 C 614.00 368.90 619.28 362.34 624.00 356.00 C 646.09 318.79 662.02 342.66 681.00 370.00 C 706.09 343.77 729.06 315.57 754.00 289.00 C 745.07 282.90 734.78 278.42 727.00 271.00 C 752.75 263.83 778.25 255.91 804.00 249.00 C 800.96 276.07 797.14 302.94 794.00 330.00 C 784.37 324.23 779.62 310.76 770.00 305.00 C 763.69 313.50 754.76 320.24 749.00 329.00 C 728.14 358.20 688.56 418.18 660.00 379.00 C 655.63 373.00 651.26 364.78 645.00 362.00 C 631.75 387.50 621.19 397.30 605.25 423.25 C 589.30 449.19 565.38 412.45 556.00 394.00 C 527.92 423.36 501.68 454.51 475.00 485.00 C 480.45 487.04 486.73 489.50 493.00 490.00 C 491.11 489.66 488.66 486.88 486.00 488.00 C 508.75 462.91 530.15 436.65 553.00 412.00 C 556.43 432.23 559.36 456.62 563.00 475.00 C 564.29 474.83 564.75 473.30 566.00 473.00 C 579.98 506.54 621.97 503.76 645.25 520.75 C 668.53 537.75 681.17 585.62 716.00 564.00 C 711.53 549.33 701.42 536.61 697.00 522.00 C 728.80 522.62 760.33 503.27 772.00 473.00 C 797.59 480.11 822.12 468.71 839.25 449.25 C 856.37 429.78 856.87 398.42 847.75 376.25 C 838.63 354.08 849.62 323.47 822.08 308.92 C 794.54 294.37 815.84 262.76 814.00 237.00 C 790.65 238.04 793.35 249.94 767.68 250.68 C 742.00 251.42 712.34 218.54 683.00 220.00 C 653.66 221.46 653.55 217.91 631.70 226.70 C 609.84 235.48 628.14 264.02 622.00 277.00 C 615.86 289.98 632.13 327.94 617.00 332.00 M 792.00 374.00  C 795.83 374.46 831.27 385.95 821.67 396.67 C 812.07 407.39 801.22 383.13 784.00 388.00 C 766.78 392.87 766.37 370.90 792.00 374.00 M 751.00 412.00  C 780.54 414.86 779.70 445.37 757.92 427.08 C 736.15 408.78 715.20 455.74 704.75 441.25 C 694.31 426.76 740.38 410.97 751.00 412.00 M 673.00 447.00  C 684.44 451.81 662.48 466.29 650.98 470.98 C 639.47 475.66 614.16 456.01 634.00 458.00 C 653.84 459.99 660.06 441.56 673.00 447.00 Z" />
</g>
<g fill="#00ACE5" fill-opacity="1.00" stroke="None">
<path d=" M 530.00 230.00  C 524.66 233.10 520.10 238.23 515.00 242.00 C 515.79 246.27 521.13 248.22 523.00 252.00 C 536.58 261.64 519.77 318.68 514.00 272.00 C 508.23 225.32 432.22 257.94 430.00 295.00 C 441.12 292.49 475.66 308.47 469.99 322.99 C 464.32 337.51 443.86 304.89 428.00 309.00 C 412.14 313.11 394.05 320.18 388.31 337.31 C 382.57 354.43 380.06 378.40 390.08 391.92 C 400.09 405.45 425.37 414.41 440.92 402.92 C 456.47 391.43 475.45 390.42 457.08 409.08 C 438.71 427.74 424.49 417.14 404.00 417.00 C 410.02 425.09 414.73 434.73 422.00 442.00 C 429.45 449.45 436.75 459.22 445.00 466.00 C 448.63 468.54 452.15 472.25 456.00 475.00 C 452.89 465.04 480.18 449.39 485.75 438.75 C 491.32 428.11 507.46 415.08 516.75 403.75 C 526.04 392.43 535.97 380.91 547.75 368.75 C 559.53 356.60 574.90 384.52 582.00 393.00 C 581.94 385.10 601.26 370.23 602.75 362.75 C 604.23 355.26 626.15 335.73 617.00 332.00 C 610.98 333.62 607.41 328.65 606.00 324.00 C 597.68 296.59 609.39 261.79 605.00 233.00 C 597.66 207.06 546.07 222.40 530.00 230.00 M 570.00 310.00  C 585.66 316.37 553.80 324.84 546.98 326.98 C 540.15 329.11 526.38 337.98 521.75 348.75 C 517.12 359.52 498.38 359.73 509.30 343.30 C 520.23 326.88 547.25 300.74 570.00 310.00 Z" />
</g>
<g fill="#0074B7" fill-opacity="1.00" stroke="None">
<path d=" M 523.00 252.00  C 521.13 248.22 515.79 246.27 515.00 242.00 C 520.10 238.23 524.66 233.10 530.00 230.00 C 523.65 232.32 517.12 237.91 514.00 244.00 C 516.56 246.67 520.69 249.05 523.00 252.00 Z" />
</g>
<g fill="#0074B7" fill-opacity="1.00" stroke="None">
<path d=" M 606.00 324.00  C 601.10 295.00 612.89 260.87 605.00 233.00 C 609.39 261.79 597.68 296.59 606.00 324.00 Z" />
</g>
<g fill="#00ACE5" fill-opacity="1.00" stroke="None">
<path d=" M 660.00 379.00  C 688.56 418.18 728.14 358.20 749.00 329.00 C 724.46 358.29 692.35 413.99 660.00 379.00 Z" />
</g>
<g fill="#00ACE5" fill-opacity="1.00" stroke="None">
<path d=" M 610.00 376.00  C 614.68 369.45 619.78 363.11 624.00 356.00 C 619.28 362.34 614.00 368.90 610.00 376.00 Z" />
</g>
<g fill="#00ACE5" fill-opacity="1.00" stroke="None">
<path d=" M 792.00 374.00  C 766.37 370.90 766.78 392.87 784.00 388.00 C 801.22 383.13 812.07 407.39 821.67 396.67 C 831.27 385.95 795.83 374.46 792.00 374.00 Z" />
</g>
<g fill="#00ACE5" fill-opacity="1.00" stroke="None">
<path d=" M 493.00 490.00  C 519.95 492.14 539.75 484.96 563.00 475.00 C 559.36 456.62 556.43 432.23 553.00 412.00 C 530.15 436.65 508.75 462.91 486.00 488.00 C 488.66 486.88 491.11 489.66 493.00 490.00 Z" />
</g>
<g fill="#00ACE5" fill-opacity="1.00" stroke="None">
<path d=" M 751.00 412.00  C 740.38 410.97 694.31 426.76 704.75 441.25 C 715.20 455.74 736.15 408.78 757.92 427.08 C 779.70 445.37 780.54 414.86 751.00 412.00 Z" />
</g>
<g fill="#0074B7" fill-opacity="1.00" stroke="None">
<path d=" M 445.00 466.00  C 436.75 459.22 429.45 449.45 422.00 442.00 C 427.84 450.18 436.51 460.05 445.00 466.00 Z" />
</g>
<g fill="#00ACE5" fill-opacity="1.00" stroke="None">
<path d=" M 673.00 447.00  C 660.06 441.56 653.84 459.99 634.00 458.00 C 614.16 456.01 639.47 475.66 650.98 470.98 C 662.48 466.29 684.44 451.81 673.00 447.00 Z" />
</g>
<g fill="#0074B7" fill-opacity="1.00" stroke="None">
<path d=" M 865.00 492.00  C 857.82 498.48 850.95 507.32 844.00 513.00 C 842.21 511.09 839.38 509.78 839.00 507.00 C 835.98 509.49 827.22 507.69 832.00 503.00 C 830.13 502.10 824.09 500.81 828.00 499.00 C 824.16 500.05 826.75 495.90 823.00 497.00 C 822.70 500.91 821.53 501.44 818.00 500.00 C 821.36 494.32 828.08 487.00 831.00 482.00 C 800.80 523.00 754.85 550.38 714.23 576.23 C 673.61 602.08 610.38 628.50 614.00 685.00 C 681.47 601.79 797.87 582.28 865.00 492.00 Z" />
</g>
<g fill="#0074B7" fill-opacity="1.00" stroke="None">
<path d=" M 1194.00 763.00  C 1184.54 758.36 1174.44 748.66 1170.00 739.00 C 1167.31 749.36 1158.31 758.17 1148.00 761.00 C 1157.66 765.45 1167.36 775.53 1172.00 785.00 C 1173.43 774.43 1183.44 764.45 1194.00 763.00 Z" />
</g>
</svg>