<svg xmlns="http://www.w3.org/2000/svg" width="82" height="82" viewBox="0 0 70 44" fill="none">
<path d="M56.0797 29.0843C51.4477 29.0843 47.6777 25.2325 47.6777 20.5C47.6777 15.7675 51.4477 11.9157 56.0797 11.9157C58.4839 11.9157 60.6501 12.9537 62.1839 14.6094L70.3368 6.27954C66.7179 2.49352 61.6689 0.140121 56.0797 0.140121C45.0748 0.140121 36.1522 9.25632 36.1522 20.5C36.1522 31.7437 45.0748 40.8599 56.0797 40.8599C61.4954 40.8599 66.4045 38.6495 69.9981 35.0665L61.8452 26.7366C60.3395 28.1893 58.3103 29.0843 56.0797 29.0843Z" fill="#14467C"></path>
<path d="M30.4706 0H30.4678C26.7472 0 23.7311 3.08158 23.7311 6.8829V34.1171C23.7311 37.9184 26.7472 41 30.4678 41H30.4706C34.1912 41 37.2073 37.9184 37.2073 34.1171V6.8829C37.2073 3.08158 34.1912 0 30.4706 0Z" fill="#F4831E"></path>
<path d="M13.3503 6.81999C13.3503 3.05341 10.3617 0 6.67515 0C2.98857 0 0 3.05341 0 6.81999V34.18C0 37.9466 2.98857 41 6.67515 41C10.3617 41 13.3503 37.9466 13.3503 34.18V6.81999Z" fill="#F4831E"></path>
<path d="M10.4032 20.4971V20.5C10.4032 24.3013 13.4193 27.3829 17.1399 27.3829L43.7957 27.3829C47.5163 27.3829 50.5324 24.3013 50.5324 20.5V20.4971C50.5324 16.6958 47.5163 13.6142 43.7957 13.6142L17.1399 13.6142C13.4193 13.6142 10.4032 16.6958 10.4032 20.4971Z" fill="#F4831E"></path>
</svg>