<?xml version="1.0" encoding="UTF-8"?>
<!-- Generator: visioncortex VTracer 0.6.12 -->
<svg version="1.1" xmlns="http://www.w3.org/2000/svg" width="421" height="412">
<path d="M0 0 C1.13051 0.1882 2.26102 0.37641 3.42578 0.57031 C18.08324 3.17542 33.13639 8.36659 44.75 18 C51.31974 22.04292 58.57433 18.71568 65.51953 16.62109 C68 16 68 16 72 16 C72.33 15.34 72.66 14.68 73 14 C73.66 14.33 74.32 14.66 75 15 C75 14.34 75 13.68 75 13 C82.75385 12.50769 82.75385 12.50769 84 15 C84.67453 22.76496 83.61449 30.56824 82.71167 38.27319 C82.45261 40.51381 82.22165 42.75542 82 45 C81.9407 45.55687 81.9407 45.55687 81.64062 48.375 C82.1457 52.06428 83.51881 52.52054 86.75 54.1875 C102.88501 62.75038 106.51005 79.88236 105.83984 97.06641 C106 99 106 99 108 100 C111.07435 107.51666 111.43923 114.99253 111 123 C110.98066 123.72059 110.96133 124.44117 110.94141 125.18359 C110.34858 134.11191 105.15417 141.83125 99 148 C98.41477 148.59684 97.82953 149.19367 97.22656 149.80859 C87.7342 158.81665 72.02609 165.34203 59 161 C57.89453 162.55469 57.89453 162.55469 56.8125 164.875 C50.27876 177.36083 36.8767 189.45081 22 189 C21.67 189.66 21.34 190.32 21 191 C19.00045 191.04254 16.99958 191.04081 15 191 C14.34 191.33 13.68 191.66 13 192 C13.78271 194.08545 13.78271 194.08545 15.21094 196.80469 C15.71367 197.78051 16.21641 198.75633 16.73438 199.76172 C17.27578 200.7891 17.81719 201.81648 18.375 202.875 C19.42985 204.89043 20.47958 206.90855 21.52344 208.92969 C21.76022 209.37949 21.76022 209.37949 22.9585 211.65576 C24 214 24 214 24 217 C23.34 217 22.68 217 22 217 C21.67 217.66 21.34 218.32 21 219 C13.37621 221.09023 6.21135 222.94846 1 216 C0.32969 215.19563 -0.34062 214.39125 -1.03125 213.5625 C-2.58422 211.69042 -4.11879 209.80295 -5.63672 207.90234 C-8.59159 204.27346 -11.72317 200.83982 -14.91797 197.42188 C-17 195 -17 195 -18.48828 192.51562 C-23.11135 184.88944 -29.25579 184.2164 -37.52734 182.85156 C-44.19607 181.70671 -49.77576 179.52621 -55.25 175.5 C-56.05953 174.91219 -56.86906 174.32438 -57.70312 173.71875 C-58.46109 173.15156 -59.21906 172.58438 -60 172 C-60.75797 171.47406 -61.51594 170.94813 -62.29688 170.40625 C-64 169 -64 169 -64 167 C-64.66 167 -65.32 167 -66 167 C-68.12153 165.14366 -69.41329 163.38007 -71 161 C-73.32813 161.87891 -73.32813 161.87891 -76.25 163.5625 C-91.9236 171.81863 -107.90497 173.15989 -125 169 C-125.75668 168.85434 -126.51336 168.70867 -127.29297 168.55859 C-129 168 -129 168 -129 166 C-129.88688 165.71125 -130.77375 165.4225 -131.6875 165.125 C-135.2005 163.93191 -137.18385 162.35948 -140 160 C-140.99 159.67 -141.98 159.34 -143 159 C-144.71086 157.37873 -146.37045 155.70297 -148 154 C-148.97612 153.02948 -149.95538 152.0621 -150.9375 151.09766 C-151.95836 150.08596 -152.97919 149.07424 -154 148.0625 C-154.50789 147.56299 -155.01578 147.06348 -155.53906 146.54883 C-158.90934 143.20015 -162.13513 139.79678 -165 136 C-165.62507 135.25964 -166.25014 134.51927 -166.89415 133.75647 C-169.93435 129.62106 -169.93435 129.62106 -170 127 C-164.90565 125.32508 -159.31505 125.87294 -154.00391 125.97266 C-152.3024 125.97208 -150.60088 125.96728 -148.8994 125.95836 C-144.38077 125.94494 -139.86407 125.98405 -135.34576 126.03503 C-129.0047 126.09761 -122.66332 126.09214 -116.32201 126.09166 C-112.93719 126.09144 -109.55345 126.11188 -106.16884 126.14821 C-104.6159 126.15761 -103.06295 126.16689 -101.51001 126.17603 C-100.80588 126.188 -100.10175 126.19998 -99.37628 126.21233 C-90.74557 126.23671 -90.74557 126.23671 -89 121 C-88.34 120.67 -87.68 120.34 -87 120 C-88.0725 119.52562 -89.145 119.05125 -90.25 118.5625 C-90.85328 118.29566 -91.45656 118.02883 -92.07812 117.75391 C-95.94491 116.23706 -99.40315 115.86365 -103.55273 115.81055 C-104.11092 115.80219 -104.11092 115.80219 -106.93567 115.75989 C-108.14284 115.74631 -109.35 115.73274 -110.59375 115.71875 C-111.85022 115.70034 -113.1067 115.68193 -114.40125 115.66296 C-118.43412 115.60421 -122.46703 115.5515 -126.5 115.5 C-156.62103 115.10939 -156.62103 115.10939 -168.71875 114.65625 C-169.53026 114.63567 -170.34176 114.61508 -171.17786 114.59387 C-177.82252 114.29623 -179.58754 112.47914 -182.125 106.625 C-182.45758 105.87477 -182.79016 105.12453 -183.13281 104.35156 C-189.13656 88.07113 -183.98857 69.41531 -169.24609 60.19141 C-158.15449 54.30803 -146.26651 55.11782 -138.3125 65.25 C-134.70137 69.54432 -134.70137 69.54432 -131 69 C-130.78661 58.54369 -138.4096 52.50368 -147.99609 50.31641 C-149.92894 49.99217 -151.86812 49.70278 -153.8125 49.45703 C-156 49 -156 49 -157 47 C-156.34 47 -155.68 47 -155 47 C-154.46484 45.38281 -154.46484 45.38281 -153.9375 43.125 C-151.26997 34.65559 -140.77632 22 -131 22 C-130.67 21.34 -130.34 20.68 -130 20 C-125.41173 18.90523 -120.82011 18.81705 -116.125 18.8125 C-115.43664 18.80025 -114.74828 18.78801 -114.03906 18.77539 C-112.35771 18.77039 -110.67664 18.87415 -109 19 C-109 19.66 -109 20.32 -109 21 C-108.40188 21.22688 -107.80375 21.45375 -107.1875 21.6875 C-100.53034 25.6818 -101.88459 33.70656 -102.38281 40.40234 C-102 43 -102 43 -99.61719 43.56641 C-94.5455 42.4688 -94.74735 38.8853 -94.8125 34.4375 C-94.81895 33.46684 -94.82539 32.49617 -94.83203 31.49609 C-95 29 -95 29 -96 27 C-95.67 26.34 -95.34 25.68 -95 25 C-95.66 24.67 -96.32 24.34 -97 24 C-97.47438 23.19563 -97.94875 22.39125 -98.4375 21.5625 C-100 19 -100 19 -103 17 C-98.84936 3.60474 -77.81162 0.82106 -66.125 0.8125 C-65.2523 0.80025 -64.37961 0.78801 -63.48047 0.77539 C-55.2786 0.75689 -46.24156 1.07177 -44.49448 10.82095 C-44.49163 11.84893 -44.48878 12.87691 -44.48584 13.93604 C-44.47258 15.1072 -44.45931 16.27836 -44.44565 17.48502 C-44.44817 18.11268 -44.44817 18.11268 -44.46094 21.28906 C-44.44292 23.26795 -44.4249 25.24684 -44.40629 27.22573 C-44.38506 29.99003 -44.38165 32.75424 -44.37836 35.51862 C-44.37063 40.36484 -44.34377 45.21092 -44.30338 50.05698 C-44.28368 52.63555 -44.27442 55.21423 -44.27646 57.79288 C-44.2695 58.95774 -44.26254 60.1226 -44.25537 61.32275 C-44.25411 62.34914 -44.25285 63.37553 -44.25156 64.43301 C-44 67 -44 67 -42 70 C-37.28342 70.03038 -37.28342 70.03038 -36.38095 66.74945 C-36.38214 66.2518 -36.38214 66.2518 -36.38818 63.7334 C-36.3832 63.17091 -36.3832 63.17091 -36.358 60.3244 C-36.37135 59.09844 -36.38469 57.87248 -36.39844 56.60938 C-36.39043 55.35747 -36.38242 54.10557 -36.37418 52.81573 C-36.35492 49.47661 -36.35553 46.13881 -36.36798 42.79974 C-36.38404 38.10874 -36.37902 33.41808 -36.3544 28.72711 C-36.34228 26.22856 -36.34504 23.72989 -36.36411 21.23138 C-36.36228 20.6626 -36.36228 20.6626 -36.35303 17.78418 C-36.35701 16.7857 -36.36098 15.78722 -36.36508 14.75848 C-34.44277 0.23392 -11.53457 -2.38393 0 0 Z M-108 83 C-108 86.18864 -107.67079 86.71071 -104.72656 87.98047 C-100.54559 88.01042 -99.47363 85.20821 -97.375 82 C-90.0678 71.79133 -82.19001 67.6356 -69.77344 65.50781 C-66.06212 64.82828 -66.06212 64.82828 -65.8125 61.5 C-66.06048 58.19361 -66.86128 58.13593 -69.99609 57.76172 C-85.81672 57.28077 -102.4576 67.75841 -108 83 Z " fill="#0069B3" transform="translate(252,87)"/>
<path d="M0 0 C0.8727 -0.01225 1.74539 -0.02449 2.64453 -0.03711 C10.8464 -0.05561 19.88344 0.25927 21.63052 10.00845 C21.63337 11.03643 21.63622 12.06441 21.63916 13.12354 C21.65242 14.2947 21.66569 15.46586 21.67935 16.67252 C21.67683 17.30018 21.67683 17.30018 21.66406 20.47656 C21.68208 22.45545 21.7001 24.43434 21.71871 26.41323 C21.73994 29.17753 21.74335 31.94174 21.74664 34.70612 C21.75437 39.55234 21.78123 44.39842 21.82162 49.24448 C21.84132 51.82305 21.85058 54.40173 21.84854 56.98038 C21.8555 58.14524 21.86246 59.3101 21.86963 60.51025 C21.87089 61.53664 21.87215 62.56303 21.87344 63.62051 C22.28364 67.8063 23.1427 69.09305 27.375 69.5 C28.2825 69.72688 29.19 69.95375 30.125 70.1875 C29.05188 75.22585 26.43591 79.23628 23.6875 83.5 C23.25736 84.18498 22.82721 84.86995 22.38403 85.57568 C19.98061 89.382 17.49679 93.11373 14.91406 96.80078 C14.39642 97.55512 13.87878 98.30947 13.34546 99.08667 C12.33926 100.54766 11.31316 101.99518 10.26587 103.427 C7.1963 107.91915 6.01402 110.6442 10.125 115.1875 C14.10635 112.73426 16.54 107.66801 19 103.75 C19.96487 102.23746 20.93108 100.72579 21.89844 99.21484 C22.41374 98.40902 22.92904 97.60319 23.45996 96.77295 C26.47421 92.09247 29.54623 87.4507 32.625 82.8125 C33.22425 81.90315 33.82351 80.99379 34.44092 80.05688 C35.00698 79.20538 35.57304 78.35387 36.15625 77.47656 C36.40665 77.09863 36.40665 77.09863 37.67383 75.18604 C40.82118 70.85155 42.53466 69.29305 48.125 70.1875 C52.85544 74.2526 56.23752 79.30201 59.8125 84.375 C60.96064 85.99463 62.11031 87.61317 63.26172 89.23047 C63.76405 89.94227 64.26638 90.65408 64.78394 91.38745 C66.125 93.1875 66.125 93.1875 68.125 95.1875 C69.99089 93.51937 71.55723 91.88335 73.1875 90 C73.6821 89.44482 74.17669 88.88963 74.68628 88.31763 C77.69759 84.91082 80.58912 81.41941 83.4375 77.875 C87.69181 72.58194 92.29198 67.68026 96.95654 62.75269 C101.25547 58.1869 105.23567 53.47617 109.14844 48.57422 C111.92649 45.21969 114.95717 42.17198 118.125 39.1875 C113.65074 39.1875 109.48559 40.59466 105.19336 41.76562 C92.98975 44.96208 92.98975 44.96208 90.125 40.1875 C89.28482 34.42626 90.9085 32.35526 96.28748 30.4024 C96.67671 30.30652 96.67671 30.30652 98.64648 29.82129 C99.53421 29.59806 100.42193 29.37483 101.33655 29.14484 C102.28767 28.91657 103.2388 28.68831 104.21875 28.45312 C105.20243 28.21084 106.1861 27.96856 107.19958 27.71893 C109.27628 27.21012 111.35416 26.70609 113.43311 26.20654 C116.61658 25.43953 119.79463 24.6525 122.97266 23.86328 C124.99189 23.37119 127.01142 22.88026 129.03125 22.39062 C129.98238 22.15426 130.9335 21.9179 131.91345 21.67438 C132.80117 21.46376 133.68889 21.25314 134.60352 21.03613 C135.38199 20.84755 136.16046 20.65896 136.96252 20.46466 C139.65172 20.11999 142.12696 20.18946 144.125 22.1875 C144.06698 32.44276 142.88158 42.75549 141.93665 52.95987 C141.81251 54.31673 141.69262 55.67398 141.57703 57.03159 C141.41059 58.96622 141.22514 60.89919 141.03906 62.83203 C140.93545 63.95972 140.83185 65.08741 140.7251 66.24927 C139.81972 70.68224 138.73281 72.95303 134.125 73.625 C130.08152 73.03533 128.30363 71.94804 127.87622 67.7356 C127.93383 66.78773 127.99143 65.83987 128.05078 64.86328 C128.10557 63.83525 128.16035 62.80723 128.2168 61.74805 C128.28963 60.67619 128.36246 59.60434 128.4375 58.5 C128.49873 57.41654 128.55996 56.33309 128.62305 55.2168 C128.77639 52.53922 128.94425 49.86335 129.125 47.1875 C122.59463 54.13776 116.24511 61.13436 110.26953 68.57422 C108.12625 71.18598 105.9012 73.69115 103.625 76.1875 C100.52945 79.58349 97.57349 83.04922 94.6875 86.625 C90.78675 91.44477 86.68896 96.03872 82.49219 100.60156 C79.77696 103.56771 77.13035 106.58756 74.5 109.62891 C71.19377 113.37659 68.80391 114.3818 64.125 112.1875 C60.91079 109.01532 58.36235 105.42317 55.75 101.75 C55.02684 100.76967 54.30367 99.78934 53.55859 98.7793 C48.41638 91.77025 48.41638 91.77025 47.125 89.1875 C43.50893 89.1875 42.21411 93.57571 40.5 96.4375 C39.59127 97.92405 38.6811 99.40972 37.76953 100.89453 C37.31917 101.6301 36.8688 102.36567 36.40479 103.12354 C34.12543 106.79954 31.69557 110.37172 29.27734 113.95703 C26.05726 118.79007 22.92813 123.68176 19.80493 128.57788 C19.35626 129.27663 18.90758 129.97539 18.44531 130.69531 C18.04586 131.32067 17.64642 131.94603 17.23486 132.59033 C14.80936 136.08079 13.33734 136.88956 9.125 136.1875 C5.88427 132.5785 3.3327 128.52789 0.75 124.4375 C0.35716 123.8293 -0.03568 123.22111 -0.44043 122.59448 C-2.24581 119.79585 -3.98052 117.00036 -5.61719 114.09766 C-8.14778 109.73796 -8.14778 109.73796 -9.875 108.1875 C-13.33431 110.32898 -14.55745 112.65447 -16.625 116.125 C-20.2528 119.45048 -23.52093 117.58264 -27.875 116.1875 C-31.10868 115.22623 -34.05808 115.04117 -37.42773 114.99805 C-37.98592 114.98969 -37.98592 114.98969 -40.81067 114.94739 C-42.01784 114.93381 -43.225 114.92024 -44.46875 114.90625 C-45.72522 114.88784 -46.9817 114.86943 -48.27625 114.85046 C-52.30912 114.79171 -56.34203 114.739 -60.375 114.6875 C-90.49603 114.29689 -90.49603 114.29689 -102.59375 113.84375 C-103.40526 113.82317 -104.21676 113.80258 -105.05286 113.78137 C-111.69752 113.48373 -113.46254 111.66664 -116 105.8125 C-116.33258 105.06227 -116.66516 104.31203 -117.00781 103.53906 C-123.01156 87.25863 -117.86357 68.60281 -103.12109 59.37891 C-92.02949 53.49553 -80.14151 54.30532 -72.1875 64.4375 C-68.57637 68.73182 -68.57637 68.73182 -64.875 68.1875 C-64.66161 57.73119 -72.2846 51.69118 -81.87109 49.50391 C-83.80394 49.17967 -85.74312 48.89028 -87.6875 48.64453 C-89.875 48.1875 -89.875 48.1875 -90.875 46.1875 C-90.215 46.1875 -89.555 46.1875 -88.875 46.1875 C-88.33984 44.57031 -88.33984 44.57031 -87.8125 42.3125 C-85.14497 33.84309 -74.65132 21.1875 -64.875 21.1875 C-64.545 20.5275 -64.215 19.8675 -63.875 19.1875 C-59.28673 18.09273 -54.69511 18.00455 -50 18 C-49.31164 17.98775 -48.62328 17.97551 -47.91406 17.96289 C-46.23271 17.95789 -44.55164 18.06165 -42.875 18.1875 C-42.875 18.8475 -42.875 19.5075 -42.875 20.1875 C-42.27688 20.41438 -41.67875 20.64125 -41.0625 20.875 C-34.40534 24.8693 -35.75959 32.89406 -36.25781 39.58984 C-35.875 42.1875 -35.875 42.1875 -33.49219 42.75391 C-28.4205 41.6563 -28.62235 38.0728 -28.6875 33.625 C-28.69395 32.65434 -28.70039 31.68367 -28.70703 30.68359 C-28.875 28.1875 -28.875 28.1875 -29.875 26.1875 C-29.545 25.5275 -29.215 24.8675 -28.875 24.1875 C-29.535 23.8575 -30.195 23.5275 -30.875 23.1875 C-31.34938 22.38313 -31.82375 21.57875 -32.3125 20.75 C-33.875 18.1875 -33.875 18.1875 -36.875 16.1875 C-32.72436 2.79224 -11.68662 0.00856 0 0 Z M-41.875 82.1875 C-41.875 85.37614 -41.54579 85.89821 -38.60156 87.16797 C-34.42059 87.19792 -33.34863 84.39571 -31.25 81.1875 C-23.9428 70.97883 -16.06501 66.8231 -3.64844 64.69531 C0.06288 64.01578 0.06288 64.01578 0.3125 60.6875 C0.06452 57.38111 -0.73628 57.32343 -3.87109 56.94922 C-19.69172 56.46827 -36.3326 66.94591 -41.875 82.1875 Z " fill="#00B6F5" transform="translate(185.875,87.8125)"/>
<path d="M0 0 C2.82642 -0.24292 2.82642 -0.24292 6.75391 -0.23047 C7.44758 -0.23001 8.14125 -0.22955 8.85594 -0.22908 C10.3331 -0.22605 11.81025 -0.21813 13.28735 -0.20581 C15.52828 -0.18778 17.76878 -0.1853 20.00977 -0.18555 C38.43883 -0.12234 38.43883 -0.12234 40 3 C41.17562 3.0825 42.35125 3.165 43.5625 3.25 C57.96043 4.57763 72.30129 13.05043 84 21 C80.08721 22.30426 78.87378 21.34484 75.125 19.75 C40.40554 5.83128 -2.38076 11.55011 -31 36 C-31.39961 36.32162 -31.39961 36.32162 -33.42188 37.94922 C-53.37164 54.70826 -63.45777 80.45693 -63.3125 106.1875 C-63.30976 107.18346 -63.30702 108.17942 -63.3042 109.20557 C-63.18412 117.7778 -61.97373 125.66754 -60 134 C-59.81051 134.97066 -59.62102 135.94133 -59.42578 136.94141 C-58.2667 142.86665 -58.2667 142.86665 -56 144 C-55.30562 145.99055 -54.6439 147.99255 -54 150 C-51.42857 155.57143 -51.42857 155.57143 -49 158 C-48.52562 159.0725 -48.05125 160.145 -47.5625 161.25 C-40.71951 175.26669 -27.78195 188.13511 -16 198 C-14.95915 198.91203 -13.92025 199.82629 -12.88281 200.74219 C-5.53546 207.19616 2.03016 213.06122 10.05615 218.64014 C25.1421 229.19386 39.86906 240.19273 54 252 C54.30325 252.25209 54.30325 252.25209 55.83789 253.52783 C57.79367 255.15748 59.74152 256.79617 61.6875 258.4375 C62.31261 258.95812 62.93773 259.47874 63.58179 260.01514 C68 263.77034 68 263.77034 68 266 C68.56074 266.26812 69.12148 266.53625 69.69922 266.8125 C79.58675 271.91574 93.38971 288.97634 90.25 300.83203 C89.56459 302.71438 88.83177 304.58045 88.04297 306.42188 C87 309 87 309 86.48828 311.82812 C86 314 86 314 84 314 C82.7333 312.54895 81.53661 311.03647 80.375 309.5 C74.34423 301.78192 67.42289 295.34852 60 289 C58.95787 288.09428 57.91625 287.18798 56.875 286.28125 C50.78775 280.99803 44.63048 275.81845 38.3125 270.8125 C37.72453 270.34296 37.13655 269.87342 36.53076 269.38965 C34.02492 267.4246 32.04691 266.01564 29 265 C27.64631 263.68733 26.312 262.35433 25 261 C24.34 260.67 23.68 260.34 23 260 C23 259.34 23 258.68 23 258 C21.6754 257.31614 20.33959 256.65401 19 256 C16.36084 253.9528 13.80735 251.81859 11.24219 249.67969 C9 248 9 248 7 248 C6.67 247.01 6.34 246.02 6 245 C31.7161 254.91733 55.31513 272.64403 78 288 C74.63927 283.28272 70.58655 280.12007 66 276.6875 C65.24832 276.12007 64.49663 275.55264 63.72217 274.96802 C46.41796 262 46.41796 262 42 262 C42 261.01 42 260.02 42 259 C40.35687 258.27726 38.6839 257.62186 37 257 C34.33698 255.19937 31.78076 253.28875 29.20703 251.36328 C27 250 27 250 25 251 C25 250.01 25 249.02 25 248 C22.8125 247 22.8125 247 20 246 C15.1875 243.375 15.1875 243.375 14 241 C12.34303 240.30959 10.67442 239.64694 9 239 C4.1875 236.375 4.1875 236.375 3 234 C1.90687 233.71125 0.81375 233.4225 -0.3125 233.125 C-4.18004 231.94507 -5.36207 230.91082 -8 228 C-10.21405 226.69762 -11.43292 226 -14 226 C-14 225.01 -14 224.02 -14 223 C-14.7425 222.85563 -15.485 222.71125 -16.25 222.5625 C-19.7031 221.85618 -20.56242 220.49551 -23 218 C-24.62394 216.78273 -26.27192 215.59714 -27.9375 214.4375 C-33.03142 210.79996 -37.78976 206.88703 -42.49585 202.76929 C-44.78676 200.78335 -46.98067 199.01112 -49.61328 197.49609 C-52.52861 195.66865 -54.20106 193.58474 -56.3125 190.875 C-59.09098 187.36752 -61.89614 183.96897 -64.9375 180.6875 C-68.3882 176.84642 -71.4735 172.80216 -74.5 168.625 C-74.72297 168.32122 -74.72297 168.32122 -75.85132 166.78394 C-79 162.36192 -79 162.36192 -79 159 C-79.66 158.67 -80.32 158.34 -81 158 C-84 152.57692 -84 152.57692 -84 150 C-84.66 149.67 -85.32 149.34 -86 149 C-103.65055 106.23136 -94.89052 55.61707 -58 26 C-57.34 25.34 -56.68 24.68 -56 24 C-53.06587 21.90058 -50.03189 19.95471 -47 18 C-46.2098 17.48824 -45.41961 16.97648 -44.60547 16.44922 C-29.4916 7 -29.4916 7 -22 7 C-21.67 6.34 -21.34 5.68 -21 5 C-20.67 5.165 -20.67 5.165 -19 6 C-19 5.34 -19 4.68 -19 4 C-13.74112 2.60109 -8.19445 1.84284 -2.75 2 C-1.8425 2 -0.935 2 0 2 C0 1.34 0 0.68 0 0 Z " fill="#0084D2" transform="translate(122,54)"/>
<path d="M0 0 C6.40972 -0.15309 12.51904 0.84256 18.81543 1.96777 C19.86344 2.1418 20.91145 2.31582 21.99121 2.49512 C22.98508 2.66914 23.97895 2.84316 25.00293 3.02246 C25.90398 3.17957 26.80504 3.33667 27.7334 3.49854 C29.81543 4.09277 29.81543 4.09277 30.81543 6.09277 C33.67641 6.73549 36.54208 7.11619 39.44434 7.53027 C41.81543 8.09277 41.81543 8.09277 41.81543 10.09277 C42.4548 10.21652 43.09418 10.34027 43.75293 10.46777 C50.90068 11.9265 56.88588 15.60003 62.81543 19.71777 C64.81543 21.09277 64.81543 21.09277 67.56543 22.65527 C70.39742 24.4646 72.46078 26.69357 74.81543 29.09277 C75.67523 29.95258 76.53504 30.81238 77.4209 31.69824 C86.81543 41.09277 86.81543 41.09277 89.81543 46.09277 C90.47543 46.75277 91.13543 47.41277 91.81543 48.09277 C94.81543 52.70816 94.81543 52.70816 94.81543 55.09277 C95.47543 55.42277 96.13543 55.75277 96.81543 56.09277 C97.94118 58.37343 98.9631 60.625 99.94043 62.96777 C100.21758 63.60586 100.49473 64.24395 100.78027 64.90137 C102.00702 67.79601 102.81543 69.91728 102.81543 73.09277 C103.47543 73.42277 104.13543 73.75277 104.81543 74.09277 C105.41309 75.9834 105.41309 75.9834 105.87793 78.34277 C106.04422 79.16262 106.21051 79.98246 106.38184 80.82715 C106.52492 81.5748 106.66801 82.32246 106.81543 83.09277 C106.98043 83.91777 107.14543 84.74277 107.31543 85.59277 C107.48043 86.41777 107.64543 87.24277 107.81543 88.09277 C107.97374 88.71281 108.13206 89.33285 108.29517 89.97168 C109.68578 95.59705 110.09594 100.81242 110.00293 106.59277 C109.99503 107.44774 109.98714 108.30271 109.979 109.18359 C109.90176 115.07335 109.72541 120.95944 109.44043 126.84277 C109.40973 127.57561 109.37904 128.30844 109.34741 129.06348 C109.24886 130.74638 109.04475 132.42266 108.81543 134.09277 C108.15543 134.09277 107.49543 134.09277 106.81543 134.09277 C106.47168 135.96387 106.47168 135.96387 106.31543 138.53027 C104.77702 157.61198 104.77702 157.61198 99.81543 160.09277 C99.81543 160.9384 99.81543 161.78402 99.81543 162.65527 C99.81543 163.45965 99.81543 164.26402 99.81543 165.09277 C99.15543 165.09277 98.49543 165.09277 97.81543 165.09277 C97.25293 167.34277 97.25293 167.34277 96.81543 170.09277 C96.05867 174.09277 96.05867 174.09277 93.81543 174.09277 C93.14784 176.09246 92.48142 178.09255 91.81543 180.09277 C90.45188 182.70077 88.89514 185.17352 87.31543 187.65527 C86.87401 188.35346 86.43258 189.05165 85.97778 189.771 C79.73817 199.49378 72.68536 208.40266 64.82324 216.87402 C63.42192 218.42256 62.08025 220.02627 60.78809 221.66699 C59.01312 223.84967 57.2696 225.59586 55.12793 227.40527 C54.44086 227.99309 53.75379 228.5809 53.0459 229.18652 C52.30984 229.81559 51.57379 230.44465 50.81543 231.09277 C49.18701 232.5264 47.56199 233.96389 45.94043 235.40527 C45.20051 236.06141 44.46059 236.71754 43.69824 237.39355 C42.37115 238.59124 41.07947 239.82873 39.81543 241.09277 C38.49707 242.01051 37.16115 242.90315 35.81543 243.78027 C32.30722 246.09444 28.82875 248.44372 25.37793 250.84277 C24.55422 251.41512 23.73051 251.98746 22.88184 252.57715 C20.81543 254.09277 20.81543 254.09277 18.81543 256.09277 C17.4821 256.75944 16.14876 257.42611 14.81543 258.09277 C14.15543 258.75277 13.49543 259.41277 12.81543 260.09277 C2.82075 266.24081 -7.67262 271.52327 -18.12207 276.84277 C-20.31052 277.95918 -22.49846 279.07658 -24.68544 280.19586 C-26.02912 280.88333 -27.37364 281.56914 -28.71922 282.25287 C-40.22244 288.13064 -40.22244 288.13064 -43.18457 291.09277 C-44.48195 291.82843 -45.79731 292.53264 -47.12207 293.21777 C-61.52486 301.11161 -76.08419 311.94157 -81.18457 328.09277 C-85.58649 325.89181 -83.80385 314.60848 -83.18457 310.09277 C-81.74371 305.94368 -79.7809 302.61857 -77.18457 299.09277 C-76.98154 298.80338 -76.98154 298.80338 -75.9541 297.33887 C-62.14827 279.29233 -38.18898 267.6495 -19.10425 256.2373 C-0.36182 245.02909 17.82069 233.03696 33.81543 218.09277 C34.38342 217.56329 34.95142 217.03381 35.53662 216.48828 C45.15634 207.42243 54.11852 197.54851 60.81543 186.09277 C61.70619 184.81838 62.60213 183.54759 63.50293 182.28027 C71.63061 170.1494 79.34189 155.15535 81.3584 140.66309 C81.81543 138.09277 81.81543 138.09277 82.79199 135.27637 C86.09149 125.01267 86.05463 113.63468 85.56543 102.96777 C85.527 102.10402 85.48857 101.24027 85.44897 100.35034 C85.2095 96.31217 84.76502 92.57271 83.70605 88.66309 C82.81543 85.09277 82.81543 85.09277 83.81543 82.09277 C83.15543 81.76277 82.49543 81.43277 81.81543 81.09277 C81.28809 79.16699 81.28809 79.16699 80.87793 76.78027 C80.16422 73.19457 79.40544 70.80051 76.81543 68.09277 C77.47543 68.09277 78.13543 68.09277 78.81543 68.09277 C78.1709 66.44824 78.1709 66.44824 77.00293 64.28027 C75.71014 61.85795 74.68862 59.71235 73.81543 57.09277 C67.51075 45.77008 52.74425 20.09277 37.81543 20.09277 C42.93781 25.37522 48.43069 30.20346 54.19043 34.78027 C56.60765 36.90973 57.58139 38.21335 58.81543 41.09277 C59.47543 41.42277 60.13543 41.75277 60.81543 42.09277 C60.48543 43.08277 60.15543 44.07277 59.81543 45.09277 C57.9873 43.69824 57.9873 43.69824 55.56543 41.28027 C49.72817 35.78787 42.33881 29.46909 34.43262 27.49902 C32.81543 27.09277 32.81543 27.09277 32.81543 25.09277 C30.84575 24.34123 28.83477 23.69835 26.81543 23.09277 C25.43454 22.61936 24.05573 22.13983 22.67871 21.65527 C12.16423 18.02436 2.22139 14.77588 -9.02832 15.09277 C-11.18648 15.09277 -13.17716 14.84854 -15.30957 14.53027 C-33.43339 12.40541 -51.934 17.73515 -68.50732 24.53833 C-69.35085 24.88243 -70.19438 25.22653 -71.06348 25.58105 C-71.81186 25.89599 -72.56024 26.21092 -73.3313 26.5354 C-75.18457 27.09277 -75.18457 27.09277 -77.18457 26.09277 C-62.32467 7.92564 -33.92791 1.60792 -11.80957 0.53027 C-11.01035 0.48709 -10.21113 0.44391 -9.3877 0.39941 C-6.25931 0.23996 -3.12952 0.1329 0 0 Z M27.81543 15.09277 C32.56543 19.21777 32.56543 19.21777 34.81543 18.09277 C32.31973 15.78194 31.28813 15.09277 27.81543 15.09277 Z " fill="#0890D6" transform="translate(294.1845703125,53.9072265625)"/>
<path d="M0 0 C-0.05802 10.25526 -1.24342 20.56799 -2.18835 30.77237 C-2.31249 32.12923 -2.43238 33.48648 -2.54797 34.84409 C-2.71441 36.77872 -2.89986 38.71169 -3.08594 40.64453 C-3.13774 41.20838 -3.13774 41.20838 -3.3999 44.06177 C-4.30528 48.49474 -5.39219 50.76553 -10 51.4375 C-14.04348 50.84783 -15.82137 49.76054 -16.24878 45.5481 C-16.19117 44.60023 -16.13357 43.65237 -16.07422 42.67578 C-16.01943 41.64775 -15.96465 40.61973 -15.9082 39.56055 C-15.83537 38.48869 -15.76254 37.41684 -15.6875 36.3125 C-15.62627 35.22904 -15.56504 34.14559 -15.50195 33.0293 C-15.34861 30.35172 -15.18075 27.67585 -15 25 C-21.53037 31.95026 -27.87989 38.94686 -33.85547 46.38672 C-35.99875 48.99848 -38.2238 51.50365 -40.5 54 C-43.59555 57.39599 -46.55151 60.86172 -49.4375 64.4375 C-53.33825 69.25727 -57.43604 73.85122 -61.63281 78.41406 C-64.34804 81.38021 -66.99465 84.40006 -69.625 87.44141 C-72.93123 91.18909 -75.32109 92.1943 -80 90 C-83.21421 86.82782 -85.76265 83.23567 -88.375 79.5625 C-89.09816 78.58217 -89.82133 77.60184 -90.56641 76.5918 C-95.70862 69.58275 -95.70862 69.58275 -97 67 C-100.61607 67 -101.91089 71.38821 -103.625 74.25 C-104.53373 75.73655 -105.4439 77.22222 -106.35547 78.70703 C-106.80583 79.4426 -107.2562 80.17817 -107.72021 80.93604 C-109.99957 84.61204 -112.42943 88.18422 -114.84766 91.76953 C-118.06774 96.60257 -121.19687 101.49426 -124.32007 106.39038 C-124.76874 107.08913 -125.21742 107.78789 -125.67969 108.50781 C-126.07914 109.13317 -126.47858 109.75853 -126.89014 110.40283 C-129.31564 113.89329 -130.78766 114.70206 -135 114 C-138.24073 110.391 -140.7923 106.34039 -143.375 102.25 C-143.57142 101.9459 -143.57142 101.9459 -144.56543 100.40698 C-146.37081 97.60835 -148.10552 94.81286 -149.74219 91.91016 C-152.27278 87.55046 -152.27278 87.55046 -154 86 C-157.45931 88.14148 -158.68245 90.46697 -160.75 93.9375 C-164.4118 97.29415 -167.61999 95.42659 -172 94 C-173.13438 93.79375 -174.26875 93.5875 -175.4375 93.375 C-177 92 -177 92 -176.09058 90.39478 C-172.21406 85.42361 -168.17034 80.67653 -163.875 76.0625 C-163.57143 75.72702 -163.57143 75.72702 -162.03516 74.0293 C-161.44348 73.39186 -160.8518 72.75441 -160.24219 72.09766 C-159.97849 71.81152 -159.97849 71.81152 -158.64404 70.36353 C-154.6373 67.04044 -151.84469 67.85124 -148 71 C-145.74302 74.03922 -143.81152 77.24992 -141.875 80.5 C-140.83428 82.2209 -139.79013 83.93974 -138.74219 85.65625 C-138.28699 86.41744 -137.83179 87.17863 -137.36279 87.96289 C-134.79364 91.80327 -134.79364 91.80327 -133 93 C-131.59644 91.74609 -131.59644 91.74609 -130.13672 89.4375 C-129.58605 88.5872 -129.03538 87.7369 -128.46802 86.86084 C-127.88045 85.91676 -127.29288 84.97269 -126.6875 84 C-125.43527 82.05444 -124.18266 80.10914 -122.92969 78.16406 C-122.28483 77.14989 -121.63998 76.13572 -120.97559 75.09082 C-117.81465 70.14551 -114.56478 65.2605 -111.3125 60.375 C-110.72493 59.48168 -110.13736 58.58836 -109.53198 57.66797 C-108.98131 56.83652 -108.43064 56.00508 -107.86328 55.14844 C-107.62243 54.78323 -107.62243 54.78323 -106.40356 52.93506 C-103.2793 48.62771 -101.54579 47.11267 -96 48 C-91.26956 52.0651 -87.88748 57.11451 -84.3125 62.1875 C-83.16436 63.80713 -82.01469 65.42567 -80.86328 67.04297 C-80.61212 67.39887 -80.61212 67.39887 -79.34106 69.19995 C-78 71 -78 71 -76 73 C-74.13411 71.33187 -72.56777 69.69585 -70.9375 67.8125 C-70.4429 67.25732 -69.94831 66.70213 -69.43872 66.13013 C-66.42741 62.72332 -63.53588 59.23191 -60.6875 55.6875 C-56.43319 50.39444 -51.83302 45.49276 -47.16846 40.56519 C-42.86953 35.9994 -38.88933 31.28867 -34.97656 26.38672 C-32.19851 23.03219 -29.16783 19.98448 -26 17 C-30.47426 17 -34.63941 18.40716 -38.93164 19.57812 C-51.13525 22.77458 -51.13525 22.77458 -54 18 C-54.84018 12.23876 -53.2165 10.16776 -47.83752 8.2149 C-47.44829 8.11902 -47.44829 8.11902 -45.47852 7.63379 C-44.59079 7.41056 -43.70307 7.18733 -42.78845 6.95734 C-41.83733 6.72907 -40.8862 6.50081 -39.90625 6.26562 C-38.92257 6.02334 -37.9389 5.78106 -36.92542 5.53143 C-34.84872 5.02262 -32.77084 4.51859 -30.69189 4.01904 C-27.50842 3.25203 -24.33037 2.465 -21.15234 1.67578 C-19.13311 1.18369 -17.11358 0.69276 -15.09375 0.20312 C-14.14262 -0.03324 -13.1915 -0.2696 -12.21155 -0.51312 C-11.32383 -0.72374 -10.43611 -0.93436 -9.52148 -1.15137 C-8.74301 -1.33995 -7.96454 -1.52854 -7.16248 -1.72284 C-4.47328 -2.06751 -1.99804 -1.99804 0 0 Z " fill="#FBFDFE" transform="translate(330,110)"/>
<path d="M0 0 C2.82315 4.39965 3.02307 8.6305 3.53516 13.76172 C4.24002 20.41469 5.18646 26.48107 7.4646 32.79614 C8.66115 38.16135 7.18094 40.58549 2.28516 42.63672 C0.19575 43.48646 -1.90993 44.29691 -4.02734 45.07422 C-5.09855 45.47125 -6.16977 45.86828 -7.27344 46.27734 C-20.00806 50.45842 -33.06045 50.22957 -46.02734 47.07422 C-46.78402 46.92855 -47.5407 46.78289 -48.32031 46.63281 C-50.02734 46.07422 -50.02734 46.07422 -50.02734 44.07422 C-50.91422 43.78547 -51.80109 43.49672 -52.71484 43.19922 C-56.22785 42.00612 -58.21119 40.43369 -61.02734 38.07422 C-61.52234 37.90922 -61.52234 37.90922 -64.02734 37.07422 C-65.7382 35.45295 -67.39779 33.77719 -69.02734 32.07422 C-70.00347 31.1037 -70.98272 30.13632 -71.96484 29.17188 C-72.9857 28.16018 -74.00653 27.14846 -75.02734 26.13672 C-75.53523 25.63721 -76.04313 25.1377 -76.56641 24.62305 C-79.93668 21.27437 -83.16247 17.871 -86.02734 14.07422 C-86.33988 13.70404 -86.33988 13.70404 -87.92149 11.83069 C-90.9617 7.69528 -90.9617 7.69528 -91.02734 5.07422 C-85.93299 3.3993 -80.3424 3.94716 -75.03125 4.04688 C-73.32974 4.0463 -71.62823 4.04149 -69.92674 4.03258 C-65.40811 4.01916 -60.89142 4.05827 -56.37311 4.10925 C-50.03205 4.17183 -43.69066 4.16636 -37.34935 4.16588 C-33.96453 4.16566 -30.58079 4.1861 -27.19618 4.22243 C-25.64324 4.23183 -24.0903 4.24111 -22.53735 4.25024 C-22.18529 4.25623 -22.18529 4.25623 -20.40363 4.28654 C-11.77292 4.31093 -11.77292 4.31093 -10.02734 -0.92578 C-5.86599 -5.08714 -3.92032 -3.72392 0 0 Z " fill="#009FE6" transform="translate(173.02734375,208.92578125)"/>
<path d="M0 0 C7.75385 -0.49231 7.75385 -0.49231 9 2 C9.60808 9 8.78725 16.03881 8.0625 23 C8.01911 23.41858 8.01911 23.41858 7.79956 25.53687 C7.43131 28.88034 7.06878 31.79365 6 35 C5.81004 36.57821 5.65954 38.16137 5.53516 39.74609 C5.49616 40.20597 5.49616 40.20597 5.29883 42.5332 C5.14162 44.46521 4.98796 46.39751 4.83789 48.33008 C4.79825 48.7906 4.79825 48.7906 4.59766 51.12109 C4.53071 51.96084 4.46375 52.80058 4.39478 53.66577 C3.9764 56.13951 3.35397 57.88987 2 60 C1.34 60 0.68 60 0 60 C0 59.34 0 58.68 0 58 C-0.33 57.835 -0.33 57.835 -2 57 C-1.88896 54.00339 -1.65366 51.11908 -1.32031 48.14453 C-1.2287 47.25014 -1.13708 46.35575 -1.04269 45.43425 C-0.74653 42.55922 -0.43635 39.68592 -0.125 36.8125 C0.17672 33.95673 0.4755 31.1007 0.77127 28.24431 C0.95643 26.46419 1.14545 24.68447 1.33884 22.90523 C1.58244 20.60489 1.79903 18.30441 2 16 C2.102 14.83428 2.20399 13.66857 2.30908 12.46753 C1.88841 9.10911 1.18381 9.40447 -2 9 C-4.17593 9.31081 -4.17593 9.31081 -6.55322 9.92798 C-7.4474 10.15474 -8.34158 10.3815 -9.26285 10.61513 C-10.22025 10.86717 -11.17765 11.11922 -12.16406 11.37891 C-14.19269 11.89265 -16.22134 12.40632 -18.25 12.91992 C-21.44848 13.74197 -24.64591 14.56792 -27.84277 15.39624 C-30.92665 16.19183 -34.01383 16.97342 -37.10156 17.75391 C-37.58229 17.88094 -37.58229 17.88094 -40.01505 18.52382 C-40.90292 18.74743 -41.79079 18.97103 -42.70557 19.20142 C-43.48848 19.40429 -44.27139 19.60716 -45.07803 19.81618 C-47 20 -47 20 -49 18 C-43.26344 11.51601 -33.45634 9.75338 -25.44165 7.70215 C-23.17043 7.12063 -20.90647 6.51562 -18.64258 5.90625 C-17.19307 5.52208 -15.74321 5.13922 -14.29297 4.75781 C-13.95649 4.66879 -13.95649 4.66879 -12.25371 4.21829 C-9.01325 3.39284 -6.37855 3 -3 3 C-2.67 2.34 -2.34 1.68 -2 1 C-1.34 1.33 -0.68 1.66 0 2 C0 1.34 0 0.68 0 0 Z " fill="#039AE4" transform="translate(327,100)"/>
<path d="M0 0 C0.74991 0.00943 1.49982 0.01885 2.27246 0.02856 C10.1136 0.24314 16.6874 1.54986 21.5625 8.375 C21.25 11.25 21.25 11.25 19.5625 13.375 C16.05249 13.375 13.8532 12.53677 10.79688 10.83594 C7.12528 9.17751 4.57302 8.97362 0.5625 9 C-0.61313 8.99227 -1.78875 8.98453 -3 8.97656 C-8.54155 9.61888 -12.24606 11.53735 -15.5 16.0625 C-17.96511 19.12933 -19.33819 20.39983 -23.4375 19.375 C-26.40915 16.40335 -25.81175 15.28076 -24.4375 11.375 C-17.58804 3.64928 -10.31025 -0.19952 0 0 Z " fill="#78DFFC" transform="translate(293.4375,208.625)"/>
<path d="M0 0 C0.47145 4.52855 0.47145 4.52855 -1 6 C-5.11777 6.43895 -6.93537 5.70471 -10.0625 3.0625 C-16.0661 -1.96626 -21.28317 -0.95767 -28.88281 -0.54688 C-32.93561 -1.136 -33.24855 -2.10186 -34 -6 C-26.9159 -17.01971 -5.89197 -7.86666 0 0 Z " fill="#7ADFFC" transform="translate(342,195)"/>
<path d="M0 0 C0.8849 7.55284 -6.07524 10.49434 -12.375 12.875 C-18.63579 14.69475 -26.98726 16.01274 -32 11 C-32.25 8.375 -32.25 8.375 -31 6 C-27.86985 5.21746 -25.06164 5.02895 -21.85156 4.94141 C-15.99249 4.6022 -12.71291 2.85445 -8.14062 -0.82031 C-5.34574 -2.36056 -2.38915 -2.38915 0 0 Z " fill="#78DFFC" transform="translate(250,232)"/>
<path d="M0 0 C5.04513 1.83647 9.71485 4.34593 14.4375 6.875 C15.29021 7.30941 16.14293 7.74383 17.02148 8.19141 C17.41948 8.40604 17.41948 8.40604 19.43359 9.49219 C20.16635 9.87746 20.8991 10.26272 21.65405 10.65967 C23 12 23 12 22.35571 14.16455 C20.4965 16.68167 19.70277 16.26129 17 15 C17 14.34 17 13.68 17 13 C15.6754 12.31614 14.33959 11.65401 13 11 C10.36084 8.9528 7.80735 6.81859 5.24219 4.67969 C3 3 3 3 1 3 C0.67 2.01 0.34 1.02 0 0 Z " fill="#016EB9" transform="translate(128,299)"/>
<path d="M0 0 C0.99 0.33 1.98 0.66 3 1 C2.01 1 1.02 1 0 1 C0 0.67 0 0.34 0 0 Z " fill="#06649C" transform="translate(125,297)"/>
<path d="M0 0 C2 1 2 1 2 1 Z " fill="#0A6FAC" transform="translate(123,296)"/>
<path d="" fill="#0000FF" transform="translate(0,0)"/>
<path d="" fill="#000000" transform="translate(0,0)"/>
<path d="" fill="#000000" transform="translate(0,0)"/>
<path d="" fill="#000000" transform="translate(0,0)"/>
<path d="" fill="#008080" transform="translate(0,0)"/>
<path d="" fill="#000000" transform="translate(0,0)"/>
<path d="" fill="#000000" transform="translate(0,0)"/>
<path d="" fill="#0000FF" transform="translate(0,0)"/>
<path d="" fill="#000000" transform="translate(0,0)"/>
<path d="" fill="#00FFFF" transform="translate(0,0)"/>
<path d="" fill="#000000" transform="translate(0,0)"/>
<path d="" fill="#0000FF" transform="translate(0,0)"/>
<path d="" fill="#0000FF" transform="translate(0,0)"/>
<path d="" fill="#00FFFF" transform="translate(0,0)"/>
<path d="" fill="#0000FF" transform="translate(0,0)"/>
<path d="" fill="#008080" transform="translate(0,0)"/>
<path d="" fill="#000000" transform="translate(0,0)"/>
<path d="" fill="#0000FF" transform="translate(0,0)"/>
<path d="" fill="#008080" transform="translate(0,0)"/>
<path d="" fill="#0000FF" transform="translate(0,0)"/>
<path d="" fill="#0000FF" transform="translate(0,0)"/>
<path d="" fill="#0000FF" transform="translate(0,0)"/>
<path d="" fill="#0000FF" transform="translate(0,0)"/>
<path d="" fill="#0000FF" transform="translate(0,0)"/>
<path d="" fill="#0000FF" transform="translate(0,0)"/>
<path d="" fill="#0000FF" transform="translate(0,0)"/>
<path d="" fill="#0000FF" transform="translate(0,0)"/>
<path d="" fill="#008080" transform="translate(0,0)"/>
<path d="" fill="#00AAAA" transform="translate(0,0)"/>
<path d="" fill="#0080BF" transform="translate(0,0)"/>
<path d="" fill="#008080" transform="translate(0,0)"/>
<path d="" fill="#00FFFF" transform="translate(0,0)"/>
<path d="" fill="#00FFFF" transform="translate(0,0)"/>
<path d="" fill="#0000FF" transform="translate(0,0)"/>
<path d="" fill="#0000FF" transform="translate(0,0)"/>
<path d="" fill="#00FFFF" transform="translate(0,0)"/>
<path d="" fill="#0080FF" transform="translate(0,0)"/>
<path d="" fill="#00FFFF" transform="translate(0,0)"/>
<path d="" fill="#0080FF" transform="translate(0,0)"/>
<path d="" fill="#00FFFF" transform="translate(0,0)"/>
<path d="" fill="#00FFFF" transform="translate(0,0)"/>
<path d="" fill="#00FFFF" transform="translate(0,0)"/>
<path d="" fill="#00FFFF" transform="translate(0,0)"/>
<path d="" fill="#00FFFF" transform="translate(0,0)"/>
<path d="" fill="#00BFFF" transform="translate(0,0)"/>
<path d="" fill="#00FFFF" transform="translate(0,0)"/>
<path d="" fill="#057ABA" transform="translate(0,0)"/>
<path d="" fill="#0080FF" transform="translate(0,0)"/>
<path d="" fill="#00FFFF" transform="translate(0,0)"/>
<path d="" fill="#00FFFF" transform="translate(0,0)"/>
</svg>
