<?xml version="1.0" encoding="UTF-8"?>
<!-- Generator: visioncortex VTracer 0.6.12 -->
<svg version="1.1" xmlns="http://www.w3.org/2000/svg" width="421" height="412">
<path d="M0,0 L9,1 L24,4 L37,9 L50,16 L57,21 L66,20 L77,17 L81,17 L82,15 L84,16 L84,14 L92,14 L93,16 L93,27 L91,46 L91,52 L101,58 L105,61 L110,70 L114,80 L115,90 L115,100 L117,101 L120,112 L120,124 L119,132 L114,142 L108,149 L100,156 L89,161 L81,163 L71,163 L68,162 L63,171 L55,180 L44,187 L36,190 L31,190 L30,192 L24,192 L22,193 L33,215 L33,218 L31,218 L30,220 L16,222 L10,217 L1,206 L-8,196 L-15,187 L-33,183 L-41,180 L-51,173 L-55,170 L-55,168 L-57,168 L-60,165 L-62,162 L-74,168 L-88,172 L-105,172 L-116,170 L-120,169 L-120,167 L-126,165 L-131,161 L-134,160 L-139,155 L-151,143 L-156,137 L-161,128 L-85,127 L-81,125 L-80,122 L-78,121 L-85,118 L-89,117 L-148,116 L-168,115 L-171,112 L-175,103 L-176,98 L-176,85 L-173,75 L-167,66 L-158,60 L-153,58 L-140,58 L-132,63 L-127,69 L-122,70 L-123,63 L-127,57 L-136,52 L-147,50 L-148,48 L-146,48 L-143,39 L-134,29 L-124,23 L-122,23 L-121,21 L-115,20 L-100,20 L-100,22 L-96,24 L-93,31 L-93,44 L-88,44 L-86,41 L-86,30 L-87,28 L-86,26 L-88,25 L-91,20 L-94,18 L-92,14 L-84,8 L-72,3 L-67,2 L-47,2 L-40,4 L-36,9 L-35,68 L-33,71 L-28,70 L-27,13 L-24,8 L-14,3 Z M-69,59 L-80,63 L-89,70 L-96,78 L-99,84 L-98,88 L-93,89 L-83,76 L-72,69 L-58,66 L-57,65 L-57,60 L-59,59 Z " fill="#0069B4" transform="translate(243,86)"/>
<path d="M0,0 L20,0 L27,2 L31,7 L32,66 L34,69 L40,70 L38,76 L23,100 L17,109 L20,115 L24,111 L35,94 L49,73 L52,70 L59,70 L71,86 L78,95 L89,83 L98,72 L112,57 L121,46 L128,39 L125,39 L109,43 L103,43 L100,40 L100,34 L104,31 L149,20 L153,21 L154,22 L153,39 L150,69 L147,73 L141,73 L138,70 L139,47 L127,60 L118,71 L109,81 L100,92 L90,103 L83,111 L81,113 L74,112 L61,95 L57,89 L55,89 L45,105 L37,117 L26,134 L24,136 L19,136 L15,131 L6,117 L0,108 L-5,113 L-9,118 L-18,116 L-22,115 L-81,114 L-101,113 L-104,110 L-108,101 L-109,96 L-109,83 L-106,73 L-100,64 L-91,58 L-86,56 L-73,56 L-65,61 L-60,67 L-55,68 L-56,61 L-60,55 L-69,50 L-80,48 L-81,46 L-79,46 L-76,37 L-67,27 L-57,21 L-55,21 L-54,19 L-48,18 L-33,18 L-33,20 L-29,22 L-26,29 L-26,42 L-21,42 L-19,39 L-19,28 L-20,26 L-19,24 L-21,23 L-24,18 L-27,16 L-25,12 L-17,6 L-5,1 Z M-2,57 L-13,61 L-22,68 L-29,76 L-32,82 L-31,86 L-26,87 L-16,74 L-5,67 L9,64 L10,63 L10,58 L8,57 Z " fill="#00BAF8" transform="translate(176,88)"/>
<path d="M0,0 L9,1 L24,4 L37,9 L50,16 L57,21 L66,20 L77,17 L81,17 L82,15 L84,16 L84,14 L92,14 L93,16 L93,27 L91,46 L91,52 L101,58 L105,61 L110,70 L114,80 L115,90 L115,100 L117,101 L120,112 L120,124 L119,132 L114,142 L108,149 L100,156 L89,161 L81,163 L71,163 L68,162 L63,171 L55,180 L44,187 L36,190 L31,190 L30,192 L24,192 L22,193 L33,215 L33,218 L31,218 L30,220 L16,222 L10,217 L1,206 L-8,196 L-15,187 L-13,185 L-13,187 L-9,186 L-3,187 L-3,185 L6,183 L8,185 L10,182 L14,183 L16,178 L20,175 L22,175 L21,180 L28,174 L31,171 L34,171 L35,168 L37,166 L39,164 L40,164 L41,159 L47,156 L51,156 L52,152 L59,150 L60,141 L59,137 L60,135 L58,135 L58,132 L63,133 L66,135 L70,135 L71,131 L67,127 L60,124 L61,121 L64,120 L64,122 L69,120 L70,117 L71,116 L70,116 L70,111 L67,110 L67,108 L81,107 L88,110 L93,114 L98,114 L98,109 L91,103 L82,100 L73,99 L75,95 L71,91 L70,89 L73,84 L73,81 L70,84 L68,80 L65,81 L63,79 L62,76 L60,77 L60,75 L55,75 L53,77 L48,76 L54,68 L65,56 L72,48 L73,48 L72,72 L74,74 L80,74 L82,71 L86,30 L86,24 L82,23 L37,34 L34,36 L34,42 L36,44 L46,43 L62,39 L60,43 L47,57 L40,65 L31,75 L22,86 L11,98 L7,94 L-3,80 L-8,73 L-15,73 L-22,82 L-38,107 L-46,119 L-50,114 L-51,111 L-40,94 L-29,77 L-27,72 L-29,71 L-28,70 L-27,13 L-24,8 L-14,3 Z " fill="#005EA8" transform="translate(243,86)"/>
<path d="M0,0 L32,0 L39,1 L40,3 L49,4 L65,10 L78,17 L84,21 L81,22 L68,17 L55,14 L46,13 L23,13 L7,16 L-9,22 L-22,29 L-31,36 L-41,45 L-51,59 L-57,71 L-61,84 L-63,95 L-63,118 L-60,134 L-58,143 L-56,144 L-54,150 L-51,156 L-49,158 L-45,166 L-34,180 L-24,191 L-16,198 L-2,210 L12,220 L30,233 L43,243 L54,252 L68,264 L68,266 L72,268 L82,279 L89,289 L91,298 L87,309 L86,314 L84,314 L76,304 L68,296 L60,289 L46,277 L32,266 L29,265 L25,261 L23,260 L23,258 L19,256 L9,248 L7,248 L6,245 L11,247 L33,259 L57,274 L78,288 L74,283 L57,270 L45,262 L42,262 L42,259 L37,257 L27,250 L25,251 L25,248 L20,246 L15,243 L14,241 L9,239 L4,236 L3,234 L-4,232 L-8,228 L-12,226 L-14,226 L-14,223 L-19,222 L-23,218 L-34,210 L-47,199 L-52,196 L-61,185 L-69,176 L-79,162 L-79,159 L-81,158 L-84,152 L-84,150 L-86,149 L-89,139 L-93,123 L-95,111 L-95,95 L-90,72 L-83,56 L-76,45 L-64,31 L-58,26 L-56,24 L-47,18 L-37,12 L-25,7 L-22,7 L-21,5 L-19,6 L-19,4 L-7,2 L0,2 Z M79,289 Z " fill="#0080CD" transform="translate(122,54)"/>
<path d="M0,0 L9,0 L32,4 L33,6 L44,8 L44,10 L49,11 L58,15 L67,21 L72,24 L77,29 L87,39 L89,41 L92,46 L94,48 L97,53 L97,55 L99,56 L105,70 L105,73 L107,74 L109,83 L110,88 L112,97 L112,117 L111,134 L109,134 L108,144 L106,153 L104,159 L102,160 L102,165 L100,165 L99,170 L98,174 L96,174 L94,180 L84,196 L74,209 L65,219 L61,224 L53,231 L44,239 L42,241 L33,247 L23,254 L21,256 L17,258 L15,260 L1,268 L-32,285 L-39,289 L-41,291 L-50,296 L-61,304 L-71,313 L-77,322 L-79,328 L-81,327 L-81,310 L-75,299 L-70,293 L-62,286 L-49,276 L-30,264 L-10,252 L1,245 L21,231 L36,218 L49,205 L60,191 L63,186 L69,177 L77,161 L82,149 L84,138 L86,132 L88,114 L87,93 L85,85 L86,82 L84,81 L82,72 L79,68 L81,68 L77,60 L76,57 L68,44 L59,33 L48,24 L41,20 L40,20 L45,25 L53,32 L59,37 L61,41 L63,42 L62,45 L52,36 L39,28 L35,27 L35,25 L29,23 L11,17 L0,15 L-9,15 L-18,14 L-33,15 L-52,19 L-73,27 L-75,26 L-66,18 L-52,10 L-38,5 L-26,2 L-19,1 Z M20,11 Z M23,12 Z M25,13 Z M28,14 Z M30,15 L35,19 L37,18 L33,15 Z M37,17 Z M81,69 Z " fill="#27B8F1" transform="translate(292,54)"/>
<path d="M0,0 L9,1 L24,4 L37,9 L50,16 L57,21 L66,20 L77,17 L81,17 L82,15 L84,16 L84,14 L92,14 L93,16 L93,27 L91,46 L90,49 L88,70 L86,74 L84,74 L84,72 L82,71 L86,30 L86,24 L82,23 L37,34 L34,36 L34,42 L36,44 L46,43 L62,39 L60,43 L47,57 L40,65 L31,75 L22,86 L11,98 L7,94 L-3,80 L-8,73 L-15,73 L-22,82 L-38,107 L-46,119 L-50,114 L-51,111 L-40,94 L-29,77 L-27,72 L-29,71 L-28,70 L-27,13 L-24,8 L-14,3 Z " fill="#0076C1" transform="translate(243,86)"/>
<path d="M0,0 L8,1 L11,6 L13,7 L14,4 L17,8 L19,6 L20,10 L17,16 L20,17 L22,21 L21,23 L24,24 L37,28 L45,35 L45,40 L44,41 L39,41 L31,35 L27,34 L13,34 L16,37 L18,40 L18,43 L16,43 L15,47 L10,48 L7,47 L7,49 L17,55 L18,59 L16,62 L10,61 L4,58 L-10,58 L-16,61 L-22,68 L-27,68 L-29,66 L-28,60 L-27,59 L-29,58 L-29,60 L-31,61 L-31,64 L-34,64 L-35,66 L-36,64 L-35,62 L-37,63 L-38,68 L-41,71 L-46,69 L-46,66 L-51,69 L-54,68 L-55,71 L-62,70 L-61,75 L-54,71 L-49,70 L-47,72 L-47,77 L-55,83 L-64,86 L-74,86 L-79,83 L-78,78 L-71,77 L-72,75 L-87,74 L-90,70 L-90,67 L-83,64 L-80,66 L-79,60 L-78,59 L-79,55 L-76,55 L-76,52 L-79,53 L-79,46 L-76,45 L-74,41 L-72,39 L-70,36 L-67,36 L-63,37 L-62,33 L-60,35 L-55,34 L-54,39 L-50,40 L-40,40 L-33,33 L-24,22 L-14,11 L-7,2 Z M-90,73 L-88,74 Z " fill="#0071BD" transform="translate(297,160)"/>
<path d="M0,0 L4,1 L5,2 L4,19 L1,49 L-2,53 L-8,53 L-11,50 L-10,27 L-22,40 L-31,51 L-40,61 L-49,72 L-59,83 L-66,91 L-68,93 L-75,92 L-88,75 L-92,69 L-94,69 L-104,85 L-112,97 L-123,114 L-125,116 L-130,116 L-134,111 L-143,97 L-149,88 L-154,93 L-158,98 L-167,96 L-172,94 L-166,86 L-152,71 L-148,70 L-143,73 L-131,92 L-128,95 L-114,74 L-100,53 L-97,50 L-90,50 L-78,66 L-71,75 L-60,63 L-51,52 L-37,37 L-28,26 L-21,19 L-24,19 L-40,23 L-46,23 L-49,20 L-49,14 L-45,11 Z " fill="#FBFDFE" transform="translate(325,108)"/>
<path d="M0,0 L20,0 L27,2 L31,7 L32,66 L34,69 L40,70 L38,76 L23,100 L17,109 L15,109 L5,93 L-1,91 L-9,98 L-21,112 L-23,114 L-81,114 L-101,113 L-104,110 L-108,101 L-109,96 L-109,83 L-106,73 L-102,67 L-100,70 L-100,75 L-101,80 L-101,85 L-103,85 L-102,91 L-98,96 L-93,96 L-92,100 L-90,100 L-89,104 L-84,106 L-84,104 L-82,104 L-82,106 L-78,105 L-75,107 L-70,108 L-71,112 L-57,111 L-55,108 L-52,109 L-50,106 L-48,106 L-47,104 L-43,103 L-38,100 L-35,100 L-32,97 L-28,96 L-27,92 L-25,92 L-24,88 L-30,88 L-26,86 L-16,73 L-5,66 L9,63 L10,58 L-2,58 L-9,59 L-8,51 L0,48 L3,47 L4,49 L7,45 L10,45 L15,43 L14,46 L16,45 L17,42 L19,42 L21,37 L23,37 L23,35 L21,34 L24,22 L24,20 L23,20 L23,12 L24,10 L21,9 L21,7 L15,5 L18,4 L17,2 L-4,2 Z M-82,83 Z M-86,85 L-83,86 L-83,90 L-85,94 L-89,95 L-93,96 L-91,92 L-89,92 L-87,86 Z M-83,85 Z " fill="#00AFF1" transform="translate(176,88)"/>
<path d="M0,0 L32,0 L39,1 L40,3 L49,4 L65,10 L78,17 L84,21 L81,22 L68,17 L55,14 L46,13 L23,13 L7,16 L-9,22 L-22,29 L-31,36 L-41,45 L-51,59 L-57,71 L-61,84 L-64,97 L-65,113 L-75,116 L-76,112 L-78,117 L-80,117 L-81,112 L-81,106 L-82,103 L-82,100 L-80,96 L-82,95 L-80,92 L-80,86 L-83,86 L-81,82 L-85,81 L-83,76 L-80,67 L-78,60 L-75,60 L-76,53 L-76,50 L-75,46 L-73,41 L-63,30 L-58,26 L-56,24 L-47,18 L-37,12 L-25,7 L-22,7 L-21,5 L-19,6 L-19,4 L-7,2 L0,2 Z " fill="#008EDC" transform="translate(122,54)"/>
<path d="M0,0 L6,2 L6,5 L7,3 L9,3 L8,13 L11,12 L12,14 L13,10 L14,8 L16,9 L17,10 L18,7 L22,6 L20,10 L10,23 L3,30 L-2,36 L-10,43 L-16,48 L-18,50 L-27,56 L-37,63 L-39,65 L-43,67 L-45,69 L-59,77 L-92,94 L-99,98 L-101,100 L-110,105 L-121,113 L-131,122 L-137,131 L-139,137 L-141,136 L-141,119 L-135,108 L-130,102 L-122,95 L-109,85 L-90,73 L-70,61 L-59,54 L-39,40 L-24,27 L-11,14 Z " fill="#008DD8" transform="translate(352,245)"/>
<path d="M0,0 L5,3 L8,7 L11,29 L14,39 L13,44 L2,49 L-12,53 L-29,53 L-40,51 L-44,50 L-44,48 L-50,46 L-55,42 L-58,41 L-63,36 L-75,24 L-80,18 L-85,9 L-9,8 L-5,6 L-4,3 Z " fill="#00A5EB" transform="translate(167,205)"/>
<path d="M0,0 L9,0 L32,4 L33,6 L44,8 L44,10 L49,11 L58,15 L67,21 L72,24 L77,29 L87,39 L89,41 L92,46 L94,48 L97,53 L97,55 L99,56 L103,65 L103,67 L98,68 L96,67 L94,71 L90,72 L89,75 L86,76 L84,78 L81,71 L79,68 L81,68 L77,60 L76,57 L68,44 L59,33 L48,24 L41,20 L40,20 L45,25 L53,32 L59,37 L61,41 L63,42 L62,45 L52,36 L39,28 L35,27 L35,25 L29,23 L11,17 L0,15 L-9,15 L-18,14 L-33,15 L-52,19 L-73,27 L-75,26 L-66,18 L-52,10 L-38,5 L-26,2 L-19,1 Z M20,11 Z M23,12 Z M25,13 Z M28,14 Z M30,15 L35,19 L37,18 L33,15 Z M37,17 Z M81,69 Z " fill="#0192DD" transform="translate(292,54)"/>
<path d="M0,0 L4,0 L3,6 L-1,6 L-1,14 L1,17 L-2,21 L-1,29 L2,28 L4,30 L2,32 L-1,33 L-2,38 L-1,40 L-1,43 L0,45 L-2,51 L0,52 L-1,57 L0,61 L-1,65 L2,62 L5,63 L6,67 L10,66 L12,70 L12,73 L14,73 L14,69 L19,69 L17,71 L20,73 L27,74 L28,69 L32,68 L33,62 L35,64 L35,69 L36,66 L40,65 L42,68 L42,62 L48,60 L50,51 L47,51 L46,45 L43,46 L42,40 L40,38 L41,33 L44,31 L46,28 L48,39 L50,41 L60,40 L76,36 L74,40 L61,54 L54,62 L45,72 L36,83 L25,95 L21,91 L11,77 L6,70 L-1,70 L-8,79 L-24,104 L-32,116 L-36,111 L-37,108 L-26,91 L-15,74 L-13,69 L-15,68 L-14,67 L-13,10 L-10,5 Z M-3,14 Z M-4,15 L-3,17 Z M0,23 L2,23 L2,25 L4,25 L3,28 L0,27 Z " fill="#0072BD" transform="translate(229,89)"/>
<path d="M0,0 L8,0 L9,2 L9,13 L7,32 L6,35 L4,56 L2,60 L0,60 L0,58 L-2,57 L2,16 L2,10 L-2,9 L-47,20 L-52,22 L-53,20 L-56,23 L-57,28 L-55,28 L-55,33 L-52,34 L-51,40 L-48,40 L-48,45 L-50,50 L-55,51 L-56,57 L-58,56 L-62,55 L-62,60 L-64,56 L-64,52 L-65,58 L-68,57 L-69,59 L-74,57 L-72,56 L-73,50 L-74,52 L-76,51 L-75,45 L-77,44 L-77,40 L-78,45 L-79,48 L-82,47 L-86,49 L-87,45 L-86,42 L-84,42 L-84,37 L-81,34 L-79,34 L-78,32 L-76,28 L-78,28 L-78,26 L-80,26 L-80,23 L-76,23 L-80,18 L-77,17 L-78,15 L-81,13 L-80,11 L-78,10 L-76,7 L-72,11 L-72,14 L-69,14 L-63,16 L-64,13 L-60,7 L-57,6 L-55,6 L-53,4 L-49,8 L-49,12 L-51,12 L-51,14 L-49,15 L-51,18 L-49,18 L-49,16 L-40,12 L-7,3 L-3,3 L-2,1 L0,2 Z M-78,18 Z M-77,52 Z " fill="#0077C3" transform="translate(327,100)"/>
<path d="M0,0 L2,0 L3,12 L2,20 L6,20 L8,22 L12,25 L14,28 L14,31 L12,31 L11,35 L6,36 L3,35 L3,37 L13,43 L14,47 L12,50 L6,49 L0,46 L-14,46 L-20,49 L-26,56 L-31,56 L-33,54 L-32,48 L-31,47 L-33,46 L-33,48 L-35,49 L-35,52 L-38,52 L-39,54 L-40,52 L-39,50 L-41,51 L-42,56 L-45,59 L-50,57 L-50,54 L-55,57 L-58,56 L-59,59 L-66,58 L-65,63 L-58,59 L-53,58 L-51,60 L-51,65 L-59,71 L-68,74 L-78,74 L-83,71 L-82,66 L-75,65 L-76,63 L-91,62 L-94,58 L-94,55 L-87,52 L-83,54 L-81,54 L-80,52 L-75,56 L-75,57 L-70,57 L-70,55 L-62,53 L-61,51 L-54,52 L-53,49 L-50,49 L-49,46 L-46,45 L-38,46 L-34,44 L-33,42 L-30,42 L-30,38 L-22,38 L-21,34 L-17,35 L-12,33 L-7,30 L-6,26 L-7,22 L-4,22 L-5,17 L-3,13 L-2,2 L0,2 Z M-94,61 L-92,62 Z " fill="#006BB6" transform="translate(301,172)"/>
<path d="M0,0 L1,2 L-1,2 L-1,10 L-3,10 L-3,8 L-5,8 L-5,11 L-11,11 L-10,15 L-7,16 L-5,14 L-4,17 L-1,18 L2,22 L-22,35 L-43,46 L-45,48 L-54,53 L-65,61 L-75,70 L-81,79 L-83,85 L-85,84 L-85,67 L-79,56 L-74,50 L-66,43 L-53,33 L-34,21 L-14,9 L-3,2 Z M-9,17 Z " fill="#0065B1" transform="translate(296,297)"/>
<path d="M0,0 L75,0 L75,1 L9,2 L9,4 L13,4 L13,7 L15,7 L17,9 L20,8 L20,12 L22,13 L22,15 L24,16 L26,23 L29,22 L31,20 L31,24 L34,25 L34,28 L41,27 L45,30 L46,28 L52,28 L53,24 L56,25 L56,28 L62,27 L62,25 L68,24 L74,24 L76,20 L78,22 L82,19 L84,19 L86,16 L89,17 L91,14 L95,15 L99,30 L98,35 L87,40 L73,44 L56,44 L45,42 L41,41 L41,39 L35,37 L30,33 L27,32 L22,27 L10,15 L5,9 Z " fill="#009AE2" transform="translate(82,214)"/>
<path d="M0,0 L1,4 L5,5 L6,8 L9,11 L12,12 L11,14 L20,15 L20,20 L18,26 L16,27 L16,32 L14,32 L13,37 L12,41 L10,41 L8,47 L-2,63 L-7,64 L-9,68 L-11,67 L-12,68 L-14,73 L-16,72 L-18,73 L-19,70 L-17,61 L-19,61 L-20,64 L-22,63 L-21,60 L-25,59 L-23,52 L-20,49 L-11,33 L-4,16 L-2,5 Z " fill="#009CE4" transform="translate(378,187)"/>
<path d="M0,0 L1,2 L6,3 L15,7 L24,13 L29,16 L34,21 L44,31 L46,33 L49,38 L51,40 L54,45 L54,47 L56,48 L60,57 L60,59 L55,60 L53,59 L51,63 L47,64 L46,67 L43,68 L41,70 L38,63 L36,60 L38,60 L34,52 L33,49 L25,36 L16,25 L5,16 L-2,12 L-6,10 L-5,8 L-9,6 L-4,4 L-3,1 Z M38,61 Z " fill="#02A5EA" transform="translate(335,62)"/>
<path d="M0,0 L8,1 L11,6 L13,7 L14,4 L17,8 L19,6 L20,10 L17,16 L20,17 L22,21 L21,23 L24,24 L37,28 L45,35 L45,40 L44,41 L39,41 L31,35 L27,34 L11,35 L6,32 L6,12 L4,12 L5,15 L3,15 L2,23 L-3,24 L-7,25 L-8,20 L-10,19 L-5,17 L-3,13 L-6,10 L-7,15 L-14,18 L-15,22 L-17,22 L-17,24 L-19,25 L-19,27 L-15,27 L-14,35 L-17,35 L-18,32 L-21,32 L-21,34 L-25,34 L-28,37 L-30,39 L-31,42 L-31,40 L-34,42 L-44,44 L-45,41 L-39,39 L-27,26 L-18,15 L-9,5 L-7,2 Z " fill="#0069B5" transform="translate(297,160)"/>
<path d="M0,0 L1,0 L0,24 L2,26 L8,26 L12,24 L12,26 L14,25 L15,22 L18,22 L20,20 L20,22 L26,23 L24,32 L25,36 L24,46 L25,51 L23,55 L20,56 L14,53 L1,51 L3,47 L-1,43 L-2,41 L1,36 L1,33 L-2,36 L-4,32 L-7,33 L-9,31 L-10,28 L-12,29 L-12,27 L-17,27 L-19,29 L-24,28 L-18,20 L-7,8 Z " fill="#0063AE" transform="translate(315,134)"/>
<path d="M0,0 L1,0 L0,10 L-1,11 L1,18 L2,17 L5,12 L11,11 L11,13 L17,12 L12,17 L8,21 L-1,27 L-11,34 L-13,36 L-17,38 L-19,40 L-26,44 L-31,43 L-31,41 L-35,40 L-38,40 L-43,38 L-41,37 L-41,34 L-37,33 L-35,34 L-35,31 L-33,31 L-33,33 L-31,33 L-31,25 L-29,25 L-29,22 L-13,11 Z M0,15 Z M-39,40 Z " fill="#0074C2" transform="translate(326,274)"/>
<path d="M0,0 L2,0 L2,4 L-2,7 L-2,11 L1,12 L2,14 L6,14 L7,11 L9,11 L10,14 L1,19 L-1,21 L-10,26 L-21,34 L-31,43 L-37,52 L-39,58 L-41,57 L-41,40 L-35,29 L-30,23 L-22,16 L-9,6 Z M1,15 L2,17 Z " fill="#0058A1" transform="translate(252,324)"/>
<path d="M0,0 L5,0 L3,1 L3,4 L0,4 L0,6 L-2,7 L-2,10 L-5,10 L-6,12 L-7,10 L-6,8 L-8,9 L-9,14 L-12,17 L-17,15 L-17,12 L-22,15 L-25,14 L-26,17 L-33,16 L-32,21 L-25,17 L-20,16 L-18,18 L-18,23 L-26,29 L-35,32 L-45,32 L-50,29 L-49,24 L-42,23 L-43,21 L-58,20 L-61,16 L-61,13 L-54,10 L-50,12 L-48,12 L-47,10 L-42,14 L-42,15 L-37,15 L-37,13 L-29,11 L-28,9 L-21,10 L-20,7 L-17,7 L-16,4 L-13,3 L-5,4 L-1,2 Z M-61,19 L-59,20 Z " fill="#006FBB" transform="translate(268,214)"/>
<path d="M0,0 L8,0 L9,2 L9,13 L7,32 L6,35 L4,56 L2,60 L0,60 L0,58 L-2,57 L2,16 L2,10 L-2,9 L-43,19 L-46,18 L-44,14 L-36,11 L-7,3 L-3,3 L-2,1 L0,2 Z " fill="#039DE6" transform="translate(327,100)"/>
<path d="M0,0 L1,2 L6,3 L15,7 L24,13 L29,16 L30,19 L28,25 L28,31 L31,34 L30,38 L27,39 L17,26 L9,19 L-2,12 L-6,10 L-5,8 L-9,6 L-4,4 L-3,1 Z " fill="#009CE5" transform="translate(335,62)"/>
<path d="M0,0 L18,0 L18,1 L2,2 L6,6 L2,10 L1,8 L-2,13 L-19,15 L-35,19 L-51,25 L-56,26 L-50,19 L-37,11 L-23,5 L-7,1 Z " fill="#0087D4" transform="translate(273,55)"/>
<path d="M0,0 L8,0 L9,6 L11,7 L13,16 L14,21 L13,25 L12,23 L10,25 L-1,26 L-4,29 L-6,28 L-7,33 L-8,33 L-10,20 L-11,18 L-10,15 L-12,14 L-10,8 L-7,8 L-6,4 L-1,2 Z " fill="#1BB3EF" transform="translate(388,121)"/>
<path d="M0,0 L1,0 L1,55 L3,55 L4,53 L8,57 L15,56 L18,58 L11,60 L3,71 L-11,93 L-19,105 L-23,100 L-24,97 L-13,80 L-2,63 L0,58 L-2,57 L-1,56 Z " fill="#016BB5" transform="translate(216,100)"/>
<path d="M0,0 L1,4 L5,5 L6,8 L9,11 L12,12 L11,14 L20,15 L20,20 L18,26 L16,27 L16,32 L13,32 L13,34 L9,35 L9,32 L5,32 L4,35 L0,33 L0,31 L-4,31 L-4,28 L-6,24 L-2,6 Z " fill="#09A9EB" transform="translate(378,187)"/>
<path d="M0,0 L2,2 L-1,5 L1,8 L6,10 L8,14 L9,11 L11,10 L10,8 L18,9 L18,12 L14,17 L6,24 L0,27 L-2,26 L-2,24 L-8,25 L-9,29 L-11,32 L-13,31 L-15,21 L-13,18 L-11,11 Z M-13,28 Z " fill="#0082CF" transform="translate(339,261)"/>
<path d="M0,0 L17,0 L25,3 L30,8 L28,13 L22,12 L16,9 L2,9 L-4,12 L-10,19 L-15,19 L-17,17 L-16,11 L-7,3 Z " fill="#7BE0FC" transform="translate(285,209)"/>
<path d="M0,0 L3,0 L5,5 L7,6 L11,15 L11,17 L6,18 L4,17 L2,21 L-2,22 L-3,25 L-6,26 L-8,28 L-11,21 L-13,18 L-11,18 L-13,13 L-9,11 L-7,7 L-6,3 Z M-11,19 Z " fill="#0CADEE" transform="translate(384,104)"/>
<path d="M0,0 L75,0 L75,1 L9,2 L9,4 L13,4 L13,7 L15,7 L17,9 L20,8 L20,12 L22,13 L22,15 L24,16 L25,24 L28,24 L29,29 L26,30 L16,21 L7,11 L5,9 Z " fill="#018ED5" transform="translate(82,214)"/>
<path d="M0,0 L1,0 L1,10 L0,18 L-5,28 L-11,35 L-19,42 L-30,47 L-38,49 L-46,48 L-43,46 L-43,42 L-37,42 L-36,46 L-31,46 L-33,42 L-30,42 L-29,39 L-25,39 L-22,32 L-19,31 L-16,30 L-15,28 L-13,32 L-11,32 L-11,26 L-10,23 L-12,22 L-11,20 L-9,20 L-10,17 L-6,17 L-4,17 L-4,14 L-6,13 L-3,11 L-3,14 L-1,14 L-4,8 L-4,6 L-1,6 Z " fill="#00539B" transform="translate(362,200)"/>
<path d="M0,0 L3,1 L17,20 L21,25 L16,25 L12,23 L11,18 L5,20 L4,20 L3,15 L1,15 L-1,18 L-6,19 L-9,21 L-13,20 Z " fill="#0167B3" transform="translate(231,176)"/>
<path d="M0,0 L10,0 L19,3 L27,10 L27,15 L26,16 L21,16 L13,10 L9,9 L-5,9 L-7,4 L-4,1 Z " fill="#7DE1FC" transform="translate(315,185)"/>
<path d="M0,0 L5,1 L6,2 L6,7 L-2,13 L-11,16 L-21,16 L-26,13 L-25,8 L-18,7 L-9,6 Z " fill="#75DEFC" transform="translate(244,230)"/>
<path d="M0,0 L1,4 L-2,4 L-4,8 L-6,11 L-3,14 L1,12 L1,14 L4,15 L-8,26 L-14,36 L-15,40 L-17,39 L-17,22 L-11,11 L-6,5 Z " fill="#004E94" transform="translate(228,342)"/>
<path d="M0,0 L0,3 L-7,10 L-16,21 L-23,27 L-24,25 L-20,15 L-21,7 L-23,7 L-23,9 L-25,9 L-26,5 L-19,5 Z " fill="#016AB7" transform="translate(304,125)"/>
<path d="M0,0 L1,0 L2,59 L4,62 L10,63 L8,69 L2,79 L1,75 L-2,74 L-3,76 L-10,79 L-11,77 L-14,76 L-9,74 L-11,72 L-5,66 L-1,68 L0,67 Z " fill="#009BE0" transform="translate(206,95)"/>
<path d="M0,0 L8,1 L24,7 L37,14 L43,18 L40,19 L27,14 L14,11 L5,10 L-16,9 L-16,8 L2,8 L1,5 L3,4 Z " fill="#018DD7" transform="translate(163,57)"/>
<path d="M0,0 L1,4 L5,5 L6,8 L9,11 L12,12 L11,14 L20,15 L20,20 L18,24 L13,22 L11,21 L9,23 L0,16 L0,14 L-3,13 L-2,5 Z M-1,17 L3,19 L-2,19 Z " fill="#15B0EE" transform="translate(378,187)"/>
<path d="M0,0 L1,0 L2,13 L3,17 L3,21 L8,20 L12,22 L9,23 L10,29 L11,32 L8,32 L9,36 L12,39 L12,42 L9,44 L8,47 L3,32 L-1,11 Z " fill="#0083D0" transform="translate(28,154)"/>
<path d="M0,0 L3,1 L-1,2 L-1,5 L2,8 L-2,10 L-23,18 L-25,17 L-16,9 L-2,1 Z " fill="#017DC6" transform="translate(242,63)"/>
<path d="M0,0 L8,3 L12,7 L7,14 L2,12 L-1,9 L-6,6 L-4,1 Z " fill="#0088D8" transform="translate(195,342)"/>
<path d="M0,0 L5,2 L27,14 L33,18 L31,19 L29,18 L29,20 L24,21 L19,16 L17,15 L17,13 L13,11 L3,3 L1,3 Z " fill="#0072C1" transform="translate(128,299)"/>
<path d="M0,0 L1,0 L1,55 L3,55 L4,53 L8,57 L7,63 L3,64 L2,66 L-1,60 L0,58 L-2,57 L-1,56 Z " fill="#005BA0" transform="translate(216,100)"/>
<path d="M0,0 L10,0 L27,5 L29,7 L27,7 L26,9 L26,6 L22,7 L17,12 L17,10 L14,10 L16,4 L13,4 L13,2 L11,2 L10,7 L4,8 L5,2 L1,1 L0,3 Z " fill="#0070BA" transform="translate(249,88)"/>
<path d="M0,0 L4,3 L4,1 L7,2 L7,5 L10,5 L12,8 L14,7 L13,11 L16,14 L14,14 L13,19 L8,14 L0,3 Z " fill="#0075C2" transform="translate(43,213)"/>
<path d="M0,0 L2,3 L2,23 L1,34 L0,34 L-2,22 L-5,22 L-5,15 L-3,15 L-3,13 L-6,12 L-5,9 L-4,12 L-2,12 Z " fill="#28B5EB" transform="translate(402,148)"/>
<path d="M0,0 L1,0 L0,16 L-3,18 L-6,18 L-6,15 L-4,15 L-7,11 L-11,13 L-5,5 Z " fill="#0155A5" transform="translate(315,134)"/>
<path d="M0,0 L20,0 L27,2 L30,5 L30,7 L26,8 L20,6 L15,5 L18,4 L17,2 L-4,2 Z " fill="#01ACEB" transform="translate(176,88)"/>
<path d="M0,0 L2,3 L0,3 L0,5 L3,5 L1,9 L1,13 L0,17 L2,17 L2,22 L-4,23 L-4,29 L-6,25 L-1,2 Z M1,11 Z " fill="#0080CA" transform="translate(33,124)"/>
<path d="M0,0 L18,0 L18,2 L22,4 L24,7 L23,10 L23,8 L14,10 L16,5 L15,4 L13,2 L-3,3 Z " fill="#02B5EF" transform="translate(125,106)"/>
<path d="M0,0 L1,0 L1,10 L-3,10 L1,12 L1,14 L-3,15 L-12,13 L-13,16 L-14,14 L-16,13 L-6,9 L-1,5 Z M-15,16 Z M-16,17 Z " fill="#005FAB" transform="translate(250,232)"/>
<path d="M0,0 L2,0 L3,4 L5,5 L4,7 L8,6 L9,12 L21,12 L21,13 L5,13 L2,10 L-1,4 Z " fill="#01A6E6" transform="translate(70,188)"/>
<path d="M0,0 L4,1 L4,4 L7,3 L7,5 L10,5 L9,12 L1,9 L0,3 Z " fill="#0084D3" transform="translate(174,328)"/>
<path d="M0,0 L5,0 L10,4 L10,10 L7,9 L6,7 L0,6 L-1,1 Z " fill="#76DEFC" transform="translate(329,188)"/>
<path d="M0,0 L2,1 L2,7 L0,10 L-1,7 L-3,9 L-1,10 L-2,13 L-8,9 L-6,5 Z " fill="#01B5F2" transform="translate(157,95)"/>
<path d="M0,0 L0,3 L-7,10 L-8,7 L-13,7 L-14,4 Z " fill="#005BAC" transform="translate(304,125)"/>
<path d="M0,0 L2,1 L10,1 L5,6 L-1,10 L-3,10 L-4,6 L-1,5 L-2,2 Z " fill="#0170BB" transform="translate(318,297)"/>
<path d="M0,0 L4,0 L6,5 L2,4 L3,1 L1,3 L2,7 L13,7 L12,9 L2,9 L-3,6 L-2,1 Z " fill="#80E3FC" transform="translate(221,237)"/>
<path d="M0,0 L2,3 L1,5 L-1,5 L-2,18 L-4,16 L-5,17 L-6,27 L-7,27 L-7,16 L-4,6 Z " fill="#02A3E3" transform="translate(74,155)"/>
<path d="M0,0 L1,0 L0,9 L-3,12 L-8,11 L-3,2 Z " fill="#0063B1" transform="translate(210,211)"/>
<path d="M0,0 L4,4 L10,5 L9,10 L0,11 Z " fill="#01A2E6" transform="translate(206,153)"/>
<path d="M0,0 L2,4 L4,17 L1,16 L1,14 L-3,14 L-3,12 L-5,11 L-1,8 L-1,7 Z " fill="#0180CA" transform="translate(58,174)"/>
<path d="M0,0 L5,5 L6,7 L2,17 L0,16 Z " fill="#004887" transform="translate(211,365)"/>
<path d="M0,0 L1,0 L1,6 L-5,10 L-6,12 L-13,14 L-14,11 L-8,9 Z " fill="#005CAD" transform="translate(266,190)"/>
<path d="M0,0 L3,1 L-3,9 L-10,16 L-11,13 L-8,8 L-5,8 L-4,4 L-1,4 Z " fill="#0161B1" transform="translate(276,154)"/>
<path d="M0,0 L3,0 L0,12 L-2,12 L-6,7 L-6,5 L-1,2 Z " fill="#0075C6" transform="translate(208,356)"/>
<path d="M0,0 L1,0 L1,10 L0,18 L-3,21 L-4,14 L-6,13 L-3,11 L-3,14 L-1,14 L-4,8 L-4,6 L-1,6 Z " fill="#024A94" transform="translate(362,200)"/>
<path d="M0,0 L1,0 L2,13 L3,17 L3,21 L6,22 L6,25 L3,25 L2,27 L-1,11 Z M7,20 Z M6,21 Z " fill="#036CB2" transform="translate(28,154)"/>
<path d="M0,0 L0,3 L-2,9 L-3,11 L-8,10 L-14,10 L-12,6 L-11,7 L-6,7 Z " fill="#005AA8" transform="translate(281,220)"/>
<path d="M0,0 L8,1 L8,3 L4,5 Z M1,5 L4,5 L4,9 L-16,9 L-16,8 L2,8 Z " fill="#0176C0" transform="translate(163,57)"/>
<path d="M0,0 L5,0 L8,3 L8,7 L1,8 L1,4 L-1,2 Z " fill="#69D8FA" transform="translate(291,209)"/>
<path d="M0,0 L3,3 L3,5 L5,6 L9,15 L9,17 L5,18 L5,16 L7,16 L7,14 L5,14 L5,10 L1,8 L1,3 L-1,3 Z " fill="#0DA5E4" transform="translate(386,104)"/>
<path d="M0,0 L2,0 L3,5 L7,6 L0,7 L-1,9 L-7,8 L-4,6 L-2,6 Z " fill="#00559B" transform="translate(274,269)"/>
<path d="M0,0 L5,2 L6,7 L3,9 L2,12 L-1,4 Z " fill="#0077C1" transform="translate(34,189)"/>
<path d="M0,0 L5,2 L5,5 L3,9 L5,9 L3,17 L2,17 L0,4 L-1,2 Z " fill="#19ADE7" transform="translate(378,137)"/>
<path d="M0,0 L3,0 L3,3 L5,5 L4,9 L6,10 L3,10 L-3,4 L-2,2 Z " fill="#0074BF" transform="translate(59,230)"/>
<path d="M0,0 L12,2 L12,3 L3,5 L2,9 L-1,8 Z " fill="#005DAB" transform="translate(219,244)"/>
<path d="M0,0 L5,1 L5,2 L-2,4 L-9,13 L-10,13 L-10,8 L-6,7 L-6,2 Z " fill="#015FAF" transform="translate(229,156)"/>
<path d="M0,0 L3,3 L5,4 L5,7 L7,8 L7,10 L2,8 L-5,4 L-5,2 Z " fill="#0190D6" transform="translate(114,242)"/>
<path d="M0,0 L5,2 L0,6 L-5,9 L-7,8 L-7,3 L0,4 Z " fill="#0064B0" transform="translate(242,227)"/>
<path d="M0,0 L2,1 L0,5 L-2,5 L-2,9 L-7,12 L-10,11 Z " fill="#0058A9" transform="translate(289,164)"/>
<path d="M0,0 L0,3 L1,8 L-3,12 L-3,10 L-7,12 L-5,7 Z " fill="#0081CD" transform="translate(47,98)"/>
<path d="M0,0 L6,2 L15,8 L12,9 L9,6 L0,4 Z " fill="#0065AE" transform="translate(280,96)"/>
<path d="M0,0 L2,0 L3,3 L-1,7 L-2,12 L-3,10 L-6,10 L-4,6 Z " fill="#0160AE" transform="translate(217,198)"/>
<path d="M0,0 L3,1 L4,4 L0,9 L-3,9 L-4,11 L-3,6 Z " fill="#017FCA" transform="translate(39,110)"/>
<path d="M0,0 L5,5 L3,11 L1,11 L1,9 L-1,8 Z " fill="#0291E0" transform="translate(326,149)"/>
<path d="M0,0 L5,2 L13,7 L10,8 L-3,3 L0,2 Z " fill="#0580C5" transform="translate(193,68)"/>
<path d="M0,0 L3,1 L8,9 L4,9 L0,5 L-2,3 Z " fill="#0357A8" transform="translate(231,176)"/>
<path d="M0,0 L4,4 L-6,8 L-8,7 Z " fill="#0376BC" transform="translate(225,73)"/>
<path d="M0,0 L8,0 L10,3 L10,7 L5,5 Z " fill="#0074BD" transform="translate(92,266)"/>
<path d="M0,0 L2,0 L2,3 L4,4 L0,9 L-4,1 Z " fill="#045FAE" transform="translate(196,196)"/>
<path d="M0,0 L1,4 L5,5 L6,7 L-1,9 L0,12 L-2,12 L-2,5 Z " fill="#18A7E3" transform="translate(378,187)"/>
<path d="M0,0 L1,4 L0,10 L-2,11 L-3,14 L-5,14 L-2,5 Z " fill="#0897DA" transform="translate(372,208)"/>
<path d="M0,0 L8,1 L8,6 L3,5 L0,5 Z " fill="#0059AA" transform="translate(315,160)"/>
<path d="M0,0 L1,0 L0,16 L-1,16 L-2,9 L-2,6 Z M-5,4 L-4,4 L-3,10 L-5,10 Z " fill="#0592DB" transform="translate(335,106)"/>
<path d="M0,0 L1,3 L-1,9 L-3,9 L-4,11 L-5,4 L-3,3 L-2,1 L0,2 Z " fill="#0798DE" transform="translate(391,219)"/>
<path d="M0,0 L3,0 L3,5 L0,9 L-3,5 Z " fill="#15A7E5" transform="translate(395,202)"/>
<path d="M0,0 L2,3 L2,11 L-4,10 L-3,6 L1,7 Z " fill="#025297" transform="translate(355,163)"/>
<path d="M0,0 L8,0 L9,5 L6,6 L0,1 Z " fill="#008FD8" transform="translate(102,238)"/>
<path d="M0,0 L4,2 L4,4 L6,5 L3,6 L2,8 L-1,8 L-1,6 L-3,5 L0,2 Z " fill="#6FD9FB" transform="translate(285,209)"/>
<path d="M0,0 L3,4 L5,8 L5,11 L-2,9 L1,6 L-1,4 Z " fill="#00539A" transform="translate(271,293)"/>
<path d="M0,0 L6,0 L10,5 L6,7 L6,4 L1,3 Z " fill="#0169BE" transform="translate(102,273)"/>
<path d="M0,0 L1,2 L3,3 L3,6 L-3,7 L-3,9 L-5,8 L-3,3 Z " fill="#018FD6" transform="translate(358,236)"/>
<path d="M0,0 L1,2 L7,3 L7,6 L4,7 L2,9 L-1,1 Z " fill="#12A6E5" transform="translate(374,123)"/>
<path d="M0,0 L2,1 L4,5 L6,6 L5,9 L-3,3 L-4,1 Z M2,0 Z " fill="#0294DC" transform="translate(349,80)"/>
<path d="M0,0 L5,2 L12,6 L12,9 L8,7 L2,3 Z " fill="#0267A9" transform="translate(128,299)"/>
<path d="M0,0 L1,4 L-2,6 L-1,8 L-3,8 L-3,10 L-5,10 L-5,8 L-7,7 Z " fill="#027BC7" transform="translate(334,266)"/>
<path d="M0,0 L5,5 L10,6 L6,8 L5,11 L2,6 L0,2 Z " fill="#005AAA" transform="translate(190,218)"/>
<path d="M0,0 L1,0 L2,9 L0,10 L-2,7 L-4,4 L-4,2 Z " fill="#05A3EB" transform="translate(333,114)"/>
<path d="M0,0 L8,1 L8,3 L5,4 L5,7 L0,2 Z " fill="#0094DB" transform="translate(83,215)"/>
<path d="M0,0 L3,1 L3,3 L6,4 L2,5 L4,7 L-2,8 Z " fill="#0EA3E4" transform="translate(375,200)"/>
<path d="M0,0 L5,1 L0,5 L-5,7 L-3,1 L0,2 Z " fill="#03ABE9" transform="translate(162,146)"/>
<path d="M0,0 L2,3 L0,3 L0,5 L3,5 L1,9 L1,7 L-1,7 L-2,14 L-3,10 Z " fill="#0176BB" transform="translate(33,124)"/>
<path d="M0,0 L6,2 L9,5 L8,8 L1,2 Z " fill="#0074BE" transform="translate(190,349)"/>
<path d="M0,0 L5,0 L6,6 L2,5 L-1,1 Z " fill="#0088D8" transform="translate(203,340)"/>
<path d="M0,0 L2,1 L2,5 L-4,6 L-6,4 Z " fill="#015BA3" transform="translate(260,319)"/>
<path d="M0,0 L8,3 L6,5 L-4,3 L0,2 Z " fill="#018ACF" transform="translate(132,253)"/>
<path d="M0,0 L4,1 L3,9 L2,6 L-1,5 Z " fill="#1CABE5" transform="translate(396,193)"/>
<path d="M0,0 L2,0 L4,5 L4,12 L1,8 L-1,2 Z " fill="#1DAEE5" transform="translate(398,134)"/>
<path d="M0,0 L4,2 L2,8 L-1,8 L-1,4 L1,4 Z " fill="#6DD8FA" transform="translate(324,185)"/>
<path d="M0,0 L3,1 L2,4 L-3,5 L-3,3 L-6,1 Z " fill="#006DB5" transform="translate(240,87)"/>
<path d="M0,0 L3,1 L0,8 L-4,8 L-2,2 L0,2 Z " fill="#0061AE" transform="translate(268,218)"/>
<path d="M0,0 L1,0 L1,10 L-2,11 L-4,6 L-1,6 Z " fill="#014786" transform="translate(362,200)"/>
<path d="M0,0 L4,1 L2,7 L0,9 L-1,2 Z " fill="#0076C2" transform="translate(32,180)"/>
<path d="M0,0 L9,3 L5,5 L0,4 Z " fill="#0195E3" transform="translate(287,112)"/>
<path d="M0,0 L4,2 L6,2 L6,0 L8,0 L7,3 L0,5 L-1,2 Z " fill="#005399" transform="translate(282,269)"/>
<path d="M0,0 L3,3 L3,8 L-1,7 L-2,4 L0,2 Z " fill="#007FCB" transform="translate(67,205)"/>
<path d="M0,0 L2,1 L4,8 L4,13 L3,10 L1,10 L1,5 Z " fill="#024A8C" transform="translate(358,186)"/>
<path d="M0,0 L3,0 L4,0 L4,5 L2,5 L2,8 L0,8 Z " fill="#008EE0" transform="translate(327,139)"/>
<path d="M0,0 L4,3 L5,12 L4,12 L4,7 L0,6 Z " fill="#028ADA" transform="translate(329,118)"/>
<path d="M0,0 L7,0 L10,2 L0,4 Z " fill="#0186CF" transform="translate(127,66)"/>
<path d="M0,0 L4,1 L2,5 L-2,9 Z " fill="#01498C" transform="translate(219,362)"/>
<path d="M0,0 L5,2 L3,3 L1,2 L1,4 L-4,5 L-6,1 L0,3 Z " fill="#016EB8" transform="translate(156,315)"/>
<path d="M0,0 L5,2 L7,5 L5,5 L4,7 L1,6 Z M3,7 Z " fill="#0073BE" transform="translate(150,287)"/>
<path d="M0,0 L3,3 L4,9 L0,7 L-1,3 Z " fill="#0063AB" transform="translate(188,249)"/>
<path d="M0,0 L3,1 L2,5 L-3,6 Z " fill="#005DAC" transform="translate(223,188)"/>
<path d="M0,0 L2,3 L2,5 L0,5 L-1,7 L-7,6 L-3,4 Z " fill="#01A7E9" transform="translate(153,170)"/>
<path d="M0,0 L4,2 L-2,7 L-2,2 Z " fill="#005FB0" transform="translate(261,170)"/>
<path d="M0,0 L0,3 L-5,7 L-6,2 Z " fill="#0C56A4" transform="translate(304,125)"/>
<path d="M0,0 L6,2 L6,7 L4,7 L0,2 Z " fill="#0469AF" transform="translate(202,361)"/>
<path d="M0,0 L4,1 L4,5 L0,4 L-2,2 L0,2 Z " fill="#007FCD" transform="translate(152,313)"/>
<path d="M0,0 L7,0 L7,5 L2,3 Z " fill="#015CA2" transform="translate(192,258)"/>
<path d="M0,0 L1,0 L1,6 L-5,7 Z " fill="#0155A5" transform="translate(298,153)"/>
<path d="M0,0 L2,1 L0,6 L-3,5 L-4,1 Z " fill="#01A0E8" transform="translate(317,105)"/>
<path d="M0,0 L2,1 L-1,5 L-2,8 L-7,9 L-1,1 Z " fill="#027EC8" transform="translate(57,86)"/>
<path d="M0,0 L2,1 L3,7 L-2,5 L-3,3 Z " fill="#0071BD" transform="translate(144,295)"/>
<path d="M0,0 L6,1 L1,5 L-2,1 Z " fill="#018FD7" transform="translate(100,233)"/>
<path d="M0,0 L6,1 L5,6 L0,1 Z " fill="#0066B4" transform="translate(235,158)"/>
<path d="M0,0 L6,0 L5,3 L1,5 L1,3 L-2,1 Z " fill="#01A4E6" transform="translate(174,153)"/>
<path d="M0,0 L1,4 L4,4 L4,6 L1,7 L-2,4 Z " fill="#008CD5" transform="translate(236,67)"/>
<path d="M0,0 L3,0 L2,4 L-7,2 L-7,1 Z " fill="#027FCE" transform="translate(132,54)"/>
<path d="M0,0 L2,0 L7,5 L7,8 L1,3 Z " fill="#015297" transform="translate(241,287)"/>
<path d="M0,0 L4,1 L4,6 L1,7 L0,2 Z " fill="#0060AB" transform="translate(215,238)"/>
<path d="M0,0 L5,1 L3,4 L-2,3 Z " fill="#E0F2F9" transform="translate(164,202)"/>
<path d="M0,0 L4,2 L6,6 L3,7 L0,2 Z " fill="#035DAD" transform="translate(241,190)"/>
<path d="M0,0 L4,1 L0,5 L-2,4 Z " fill="#0263B0" transform="translate(211,176)"/>
<path d="M0,0 L2,0 L1,4 L-6,5 L-2,1 Z " fill="#02A3E3" transform="translate(169,155)"/>
<path d="M0,0 L2,0 L2,2 L-1,5 L-6,4 L-2,1 Z " fill="#02ABEA" transform="translate(87,145)"/>
<path d="M0,0 L3,1 L6,2 L6,5 L3,6 L0,2 Z " fill="#049BE0" transform="translate(359,95)"/>
<path d="M0,0 L2,0 L3,4 L-2,4 L-3,1 Z " fill="#018CD4" transform="translate(229,72)"/>
<path d="M0,0 L5,3 L2,6 L0,5 L-1,1 Z " fill="#005FA4" transform="translate(282,321)"/>
<path d="M0,0 L2,1 L1,6 L-5,5 Z " fill="#0169B4" transform="translate(307,289)"/>
<path d="M0,0 L2,0 L1,3 L-2,2 L-3,5 L-4,3 L-6,2 Z M-5,5 Z M-6,6 Z " fill="#0058A5" transform="translate(240,243)"/>
<path d="M0,0 L2,1 L2,5 L-2,5 L-3,1 Z " fill="#0778BE" transform="translate(228,233)"/>
<path d="M0,0 L5,1 L8,4 L0,3 Z " fill="#025AA5" transform="translate(301,218)"/>
<path d="M0,0 L1,2 L3,2 L1,10 L0,10 L-1,1 Z " fill="#1EA6E1" transform="translate(380,144)"/>
<path d="M0,0 L2,0 L2,3 L4,4 L0,7 L-1,1 Z " fill="#005DAC" transform="translate(291,134)"/>
<path d="M0,0 L2,1 L2,4 L-4,3 L-4,1 Z " fill="#0666B1" transform="translate(297,127)"/>
<path d="M0,0 L8,1 L11,3 L6,3 L3,3 L3,1 Z " fill="#015FA6" transform="translate(259,89)"/>
<path d="M0,0 L3,1 L0,1 Z " fill="#06649C" transform="translate(125,297)"/>
<path d="M0,0 L2,1 Z " fill="#0A6FAC" transform="translate(123,296)"/>
<path d="M0,0 Z " fill="#0000FF" transform="translate(203,365)"/>
<path d="M0,0 Z " fill="#000000" transform="translate(301,350)"/>
<path d="M0,0 Z " fill="#000000" transform="translate(348,348)"/>
<path d="M0,0 Z " fill="#000000" transform="translate(301,348)"/>
<path d="M0,0 Z " fill="#008080" transform="translate(178,341)"/>
<path d="M0,0 Z " fill="#000000" transform="translate(301,336)"/>
<path d="M0,0 Z " fill="#000000" transform="translate(288,336)"/>
<path d="M0,0 Z " fill="#0000FF" transform="translate(172,335)"/>
<path d="M0,0 Z " fill="#000000" transform="translate(301,334)"/>
<path d="M0,0 Z " fill="#00FFFF" transform="translate(191,334)"/>
<path d="M0,0 Z " fill="#000000" transform="translate(301,332)"/>
<path d="M0,0 Z " fill="#0000FF" transform="translate(301,328)"/>
<path d="M0,0 Z " fill="#0000FF" transform="translate(301,324)"/>
<path d="M0,0 Z " fill="#00FFFF" transform="translate(175,322)"/>
<path d="M0,0 Z " fill="#0000FF" transform="translate(155,322)"/>
<path d="M0,0 Z " fill="#008080" transform="translate(301,320)"/>
<path d="M0,0 Z " fill="#000000" transform="translate(74,307)"/>
<path d="M0,0 Z " fill="#0000FF" transform="translate(131,304)"/>
<path d="M0,0 Z " fill="#008080" transform="translate(127,301)"/>
<path d="M0,0 Z " fill="#0000FF" transform="translate(137,297)"/>
<path d="M0,0 Z " fill="#0000FF" transform="translate(301,292)"/>
<path d="M0,0 Z " fill="#0000FF" transform="translate(122,289)"/>
<path d="M0,0 Z " fill="#0000FF" transform="translate(301,288)"/>
<path d="M0,0 Z " fill="#0000FF" transform="translate(301,284)"/>
<path d="M0,0 Z " fill="#0000FF" transform="translate(349,282)"/>
<path d="M0,0 Z " fill="#0000FF" transform="translate(301,280)"/>
<path d="M0,0 Z " fill="#0000FF" transform="translate(206,269)"/>
<path d="M0,0 Z " fill="#008080" transform="translate(301,264)"/>
<path d="M0,0 Z " fill="#00AAAA" transform="translate(372,255)"/>
<path d="M0,0 Z " fill="#0080BF" transform="translate(124,255)"/>
<path d="M0,0 Z " fill="#008080" transform="translate(72,251)"/>
<path d="M0,0 Z " fill="#00FFFF" transform="translate(115,250)"/>
<path d="M0,0 Z " fill="#00FFFF" transform="translate(348,244)"/>
<path d="M0,0 Z " fill="#0000FF" transform="translate(348,240)"/>
<path d="M0,0 Z " fill="#0000FF" transform="translate(43,219)"/>
<path d="M0,0 Z " fill="#00FFFF" transform="translate(74,211)"/>
<path d="M0,0 Z " fill="#0080FF" transform="translate(397,210)"/>
<path d="M0,0 Z " fill="#00FFFF" transform="translate(376,190)"/>
<path d="M0,0 Z " fill="#0080FF" transform="translate(376,137)"/>
<path d="M0,0 Z " fill="#00FFFF" transform="translate(372,125)"/>
<path d="M0,0 Z " fill="#00FFFF" transform="translate(100,123)"/>
<path d="M0,0 Z " fill="#00FFFF" transform="translate(395,118)"/>
<path d="M0,0 Z " fill="#00FFFF" transform="translate(337,104)"/>
<path d="M0,0 Z " fill="#00FFFF" transform="translate(360,99)"/>
<path d="M0,0 Z " fill="#00BFFF" transform="translate(347,93)"/>
<path d="M0,0 Z " fill="#00FFFF" transform="translate(223,90)"/>
<path d="M0,0 Z " fill="#057ABA" transform="translate(216,81)"/>
<path d="M0,0 Z " fill="#0080FF" transform="translate(203,77)"/>
<path d="M0,0 Z " fill="#00FFFF" transform="translate(206,76)"/>
<path d="M0,0 Z " fill="#00FFFF" transform="translate(158,54)"/>
</svg>
