<?xml version="1.0" encoding="UTF-8"?>
<!-- Generator: visioncortex VTracer 0.6.12 -->
<svg version="1.1" xmlns="http://www.w3.org/2000/svg" width="421" height="412">
<path d="M0 0 C6.412 6.008 11.457 3.804 19.238 1.175 C38.119 -4.819 38.119 -4.819 41.238 -1.7 C41.947 6.052 40.851 13.879 39.949 21.573 C38.441 34.618 38.441 34.618 42.863 36.862 C43.229 37.067 43.229 37.067 45.082 38.104 C45.793 38.499 46.505 38.893 47.238 39.3 C59.035 47.558 63.687 61.837 63.05 75.737 C62.97 80.342 64.396 83.878 66.265 88.038 C76.344 111.475 57.207 137.661 34.914 143.956 C32.005 144.33 29.279 144.144 26.363 143.928 C19.178 143.493 15.086 143.451 12.277 150.726 C7.001 163.796 -9.837 172.605 -23.337 173.464 C-29.934 174.11 -29.934 174.11 -29.449 177.472 C-28.09 180.528 -26.522 183.356 -24.825 186.237 C-23.707 188.244 -22.594 190.253 -21.485 192.265 C-20.967 193.158 -20.449 194.051 -19.915 194.971 C-18.038 198.762 -17.712 199.881 -21.868 201.538 C-23.224 201.911 -24.585 202.268 -25.95 202.612 C-26.286 202.709 -26.286 202.709 -27.991 203.2 C-36.585 205.456 -39.707 201.754 -44.825 195.55 C-45.384 194.887 -45.943 194.225 -46.52 193.543 C-47.687 192.16 -48.851 190.774 -50.012 189.385 C-51.716 187.354 -53.44 185.342 -55.172 183.335 C-55.713 182.709 -56.254 182.083 -56.811 181.438 C-57.331 180.835 -57.851 180.233 -58.387 179.612 C-63.615 173.554 -63.615 173.554 -65.086 171.015 C-67.784 168.254 -71.286 168.151 -74.95 167.55 C-81.606 166.27 -87.463 164.437 -93.512 161.362 C-94.154 161.038 -94.797 160.715 -95.458 160.381 C-101.444 157.2 -106.221 153.809 -109.325 147.612 C-113.264 142.085 -117.405 145.768 -122.379 148.487 C-147.712 162.06 -174.154 152.322 -193.762 134.3 C-194.169 133.934 -194.169 133.934 -196.227 132.085 C-212.762 116.48 -212.762 116.48 -212.762 110.3 C-210.449 110.183 -208.164 110.135 -205.849 110.126 C-205.114 110.12 -204.379 110.113 -203.622 110.106 C-202.018 110.092 -200.414 110.08 -198.81 110.07 C-196.271 110.054 -193.733 110.03 -191.195 110.005 C-183.975 109.934 -176.755 109.874 -169.535 109.823 C-165.126 109.791 -160.717 109.75 -156.308 109.703 C-154.625 109.687 -152.943 109.674 -151.26 109.666 C-148.904 109.654 -146.549 109.63 -144.193 109.603 C-143.497 109.602 -142.8 109.602 -142.083 109.601 C-136.564 109.518 -133.405 108.56 -130.071 104.147 C-129.836 103.842 -129.836 103.842 -128.647 102.294 C-128.169 101.657 -127.692 101.019 -127.2 100.362 C-126.242 99.102 -125.282 97.843 -124.321 96.585 C-123.901 96.027 -123.481 95.469 -123.049 94.894 C-119.074 89.971 -119.074 89.971 -117.325 91.815 C-116.809 92.718 -116.293 93.62 -115.762 94.55 C-115.162 95.563 -114.561 96.576 -113.942 97.62 C-113.773 97.909 -113.773 97.909 -112.917 99.371 C-110.673 103.118 -108.267 106.763 -105.887 110.425 C-105.643 110.804 -105.643 110.804 -104.407 112.723 C-103.949 113.431 -103.492 114.14 -103.02 114.87 C-102.609 115.507 -102.198 116.144 -101.774 116.8 C-99.758 119.788 -98.352 119.725 -94.762 119.3 C-93.094 117.675 -93.094 117.675 -91.575 115.3 C-90.979 114.386 -90.384 113.472 -89.77 112.53 C-89.107 111.464 -88.445 110.398 -87.762 109.3 C-86.989 108.067 -86.216 106.833 -85.442 105.601 C-84.183 103.59 -82.928 101.577 -81.679 99.56 C-77.212 92.357 -72.498 85.328 -67.762 78.3 C-67.409 77.707 -67.055 77.115 -66.691 76.504 C-64.074 72.196 -64.074 72.196 -60.762 73.3 C-59.2 75.094 -59.2 75.094 -57.547 77.413 C-56.943 78.249 -56.34 79.085 -55.717 79.946 C-55.093 80.826 -54.468 81.706 -53.825 82.612 C-52.59 84.34 -51.351 86.065 -50.11 87.788 C-49.563 88.557 -49.017 89.325 -48.454 90.117 C-43.055 97.083 -39.333 98.656 -33.158 91.881 C-32.615 91.256 -32.072 90.631 -31.512 89.987 C-30.941 89.351 -30.369 88.714 -29.781 88.059 C-25.671 83.446 -21.734 78.699 -17.872 73.878 C-15.742 71.276 -13.528 68.784 -11.262 66.3 C-8.186 62.925 -5.251 59.482 -2.387 55.925 C1.327 51.327 5.241 46.985 9.27 42.667 C12.76 38.897 15.938 34.972 18.996 30.847 C20.238 29.3 20.238 29.3 21.238 29.3 C21.482 36.26 20.891 43.116 20.261 50.042 C20.217 56.133 22.702 56.992 28.238 56.3 C30.17 53.401 30.523 52.554 30.832 49.291 C30.912 48.49 30.992 47.688 31.074 46.863 C31.151 46 31.229 45.138 31.308 44.249 C31.394 43.357 31.48 42.466 31.569 41.547 C31.749 39.661 31.925 37.773 32.098 35.886 C32.361 33.008 32.636 30.131 32.914 27.255 C33.087 25.42 33.261 23.584 33.433 21.749 C33.514 20.893 33.596 20.036 33.679 19.154 C34.829 6.497 34.829 6.497 31.238 5.3 C29.151 5.584 29.151 5.584 26.722 6.164 C25.811 6.378 24.9 6.592 23.961 6.812 C23.471 6.932 23.471 6.932 20.988 7.538 C19.978 7.779 18.968 8.02 17.928 8.268 C15.792 8.779 13.657 9.295 11.523 9.814 C8.253 10.609 4.98 11.388 1.707 12.165 C-0.367 12.663 -2.44 13.163 -4.512 13.663 C-5.494 13.897 -6.475 14.13 -7.486 14.37 C-8.397 14.594 -9.308 14.817 -10.247 15.047 C-11.048 15.241 -11.85 15.435 -12.675 15.635 C-17.913 17.303 -18.299 19.145 -17.762 24.3 C-12.695 29.367 -0.958 24.16 5.23 22.321 C7.285 21.749 7.285 21.749 10.238 21.3 C9.192 24.194 7.543 26.266 5.445 28.472 C4.901 29.05 4.356 29.627 3.795 30.223 C3.22 30.826 2.644 31.429 2.05 32.05 C0.863 33.309 -0.323 34.57 -1.508 35.831 C-2.075 36.433 -2.642 37.035 -3.227 37.655 C-5.582 40.178 -7.845 42.776 -10.098 45.39 C-12.078 47.662 -14.108 49.884 -16.137 52.112 C-19.247 55.554 -22.227 59.063 -25.137 62.675 C-26.675 64.553 -28.217 66.428 -29.762 68.3 C-30.225 68.867 -30.687 69.435 -31.164 70.019 C-32.612 71.778 -34.089 73.509 -35.575 75.237 C-36.031 75.8 -36.487 76.364 -36.957 76.944 C-40.207 80.645 -40.207 80.645 -42.774 79.05 C-43.43 78.142 -44.086 77.235 -44.762 76.3 C-44.957 76.039 -44.957 76.039 -45.945 74.718 C-47.25 72.954 -48.509 71.164 -49.762 69.362 C-50.615 68.144 -51.469 66.926 -52.325 65.71 C-52.732 65.13 -53.139 64.55 -53.559 63.953 C-54.675 62.42 -55.872 60.948 -57.075 59.483 C-58.762 57.3 -58.762 57.3 -58.762 55.3 C-70.907 52.956 -76.126 67.749 -81.7 76.612 C-83.701 79.778 -85.705 82.941 -87.73 86.091 C-89.166 88.359 -90.551 90.629 -91.907 92.942 C-92.61 94.097 -93.313 95.251 -94.016 96.405 C-94.639 97.463 -95.263 98.52 -95.905 99.609 C-97.762 101.3 -97.762 101.3 -99.821 99.392 C-100.462 98.371 -101.102 97.351 -101.762 96.3 C-102.244 95.547 -102.726 94.795 -103.223 94.02 C-103.666 93.263 -104.11 92.506 -104.567 91.726 C-105.068 90.893 -105.57 90.061 -106.086 89.204 C-107.123 87.471 -108.149 85.731 -109.165 83.985 C-115.574 73.453 -115.574 73.453 -121.676 76.144 C-122.241 76.69 -122.805 77.237 -123.387 77.8 C-123.72 78.121 -123.72 78.121 -125.403 79.749 C-129.474 84.151 -133.375 88.691 -137.223 93.288 C-141.244 98.057 -142.942 98.603 -148.978 98.622 C-149.35 98.627 -149.35 98.627 -151.231 98.652 C-153.696 98.681 -156.16 98.695 -158.625 98.706 C-160.337 98.718 -162.049 98.729 -163.76 98.741 C-167.352 98.762 -170.944 98.773 -174.536 98.78 C-179.137 98.791 -183.736 98.839 -188.337 98.896 C-191.874 98.933 -195.41 98.944 -198.948 98.947 C-200.643 98.953 -202.339 98.969 -204.035 98.995 C-206.41 99.029 -208.782 99.026 -211.158 99.013 C-211.507 99.022 -211.507 99.022 -213.276 99.069 C-220.176 98.951 -223.426 94.46 -225.512 88.175 C-225.623 87.854 -225.623 87.854 -226.184 86.229 C-231.873 67.241 -223.835 42.62 -201.711 39.929 C-192.463 39.74 -186.871 41.244 -181.012 48.55 C-177.688 52.613 -177.688 52.613 -174.762 52.3 C-170.283 44.131 -181.371 36.7 -187.637 34.112 C-190.762 33.3 -190.762 33.3 -193.059 33.347 C-198.796 33.385 -198.796 33.385 -198.696 30.144 C-192.854 11.491 -170.619 -3.264 -151.2 3.55 C-147.097 6.495 -145.432 9.066 -145.075 14.112 C-145.006 14.984 -144.938 15.855 -144.868 16.753 C-144.776 18.974 -144.8 21.143 -144.887 23.362 C-144.762 26.3 -144.762 26.3 -141.762 27.3 C-134.16 21.736 -136.688 10.026 -141.762 3.3 C-142.154 3.011 -142.154 3.011 -144.137 1.55 C-147.089 -0.721 -144.332 -3.154 -142.133 -5.263 C-131.876 -12.889 -121.481 -16.061 -108.762 -16.013 C-108.337 -16.021 -108.337 -16.021 -106.184 -16.062 C-96.463 -16.069 -87.417 -14.191 -87.362 -2.878 C-87.355 -2.292 -87.355 -2.292 -87.321 0.672 C-87.321 1.302 -87.321 1.302 -87.321 4.491 C-87.301 6.472 -87.28 8.453 -87.26 10.434 C-87.234 13.206 -87.221 15.978 -87.209 18.75 C-87.187 23.605 -87.156 28.46 -87.108 33.314 C-87.083 35.899 -87.069 38.483 -87.064 41.067 C-87.059 41.651 -87.059 41.651 -87.033 44.607 C-87.031 45.121 -87.031 45.121 -87.02 47.726 C-86.655 51.363 -86.086 53.292 -82.174 53.315 C-78.698 51.852 -79.146 50.697 -79.166 47.049 C-79.16 45.927 -79.153 44.806 -79.146 43.65 C-79.154 43.038 -79.154 43.038 -79.196 39.944 C-79.19 38.695 -79.185 37.445 -79.179 36.158 C-79.162 32.142 -79.178 28.128 -79.2 24.112 C-79.218 20.115 -79.225 16.118 -79.21 12.12 C-79.201 9.628 -79.21 7.136 -79.24 4.644 C-79.127 -31.153 -17.127 -16.524 0 0 Z M-150.762 68.612 C-149.207 71.237 -147.713 71.193 -144.762 71.3 C-142.559 69.315 -142.559 69.315 -140.512 66.55 C-139.826 65.647 -139.141 64.745 -138.434 63.815 C-136.762 61.3 -136.762 61.3 -135.762 58.3 C-133.911 57.265 -133.911 57.265 -131.762 56.3 C-130.635 55.49 -129.51 54.678 -128.387 53.862 C-123.51 50.725 -118.279 49.906 -112.641 48.878 C-108.11 47.968 -108.434 46.674 -108.762 42.3 C-122.893 35.234 -150.762 52.979 -150.762 68.612 Z " fill="#000000" transform="translate(294.76220703125,103.7001953125)"/>
<path d="M0 0 C-3.913 1.304 -5.126 0.345 -8.875 -1.25 C-43.623 -15.196 -86.345 -9.48 -115 15 C-115.4 15.322 -115.4 15.322 -117.422 16.949 C-169.035 60.307 -147.338 135.447 -103.125 174.562 C-101.752 175.711 -100.377 176.857 -99 178 C-98.546 178.398 -98.546 178.398 -96.25 180.41 C-88.02 187.595 -79.296 193.952 -70.4 200.282 C-54.306 211.802 -38.502 223.6 -23.598 236.631 C-21.958 238.036 -20.276 239.381 -18.59 240.73 C-16 243 -16 243 -16 245 C-15.439 245.269 -14.879 245.539 -14.301 245.816 C-1.41 252.448 10.33 270.98 4.02 284.656 C2.829 287.393 2.463 290.067 2 293 C-1.109 293 -1.684 291.044 -3.5 288.625 C-10.191 280.077 -17.822 272.97 -26.289 266.211 C-28.907 264.076 -31.393 261.852 -33.875 259.562 C-39.112 254.797 -44.68 250.526 -50.327 246.266 C-53.599 243.79 -56.845 241.279 -60.091 238.77 C-62.969 236.549 -65.861 234.353 -68.777 232.184 C-69.39 231.724 -70.002 231.264 -70.633 230.791 C-71.822 229.899 -73.016 229.014 -74.215 228.135 C-75.523 227.149 -76.772 226.084 -78 225 C-75.135 223.568 -74.41 224.635 -71.688 226.184 C-71.239 226.437 -71.239 226.437 -68.968 227.72 C-68.478 228.004 -68.478 228.004 -66 229.438 C-64.981 230.022 -63.961 230.606 -62.911 231.207 C-45.616 241.186 -28.645 251.679 -12.144 262.924 C-11.737 263.2 -11.737 263.2 -9.68 264.598 C-8.965 265.088 -8.251 265.578 -7.515 266.082 C-7.015 266.385 -6.515 266.688 -6 267 C-6 257.218 -40.578 239.734 -48.156 235.027 C-53.112 231.947 -57.995 228.761 -62.875 225.562 C-69.767 221.053 -76.728 216.678 -83.75 212.375 C-100.77 201.907 -117.042 190.614 -131.762 177.051 C-133.863 175.126 -136.013 173.279 -138.188 171.438 C-181.959 132.985 -193.052 63.894 -155 18 C-154.771 17.704 -154.771 17.704 -153.613 16.207 C-149.154 10.623 -143.636 6.345 -138 2 C-137.194 1.379 -136.389 0.757 -135.559 0.117 C-97.376 -27.938 -38.136 -28.954 0 0 Z " fill="#000000" transform="translate(206,75)"/>
<path d="M0 0 C0.061 0.931 0.121 1.861 0.184 2.82 C1.364 43.778 -18.995 80.039 -45 110 C-46.063 111.291 -47.126 112.583 -48.188 113.875 C-50.821 116.937 -53.757 119.534 -56.836 122.141 C-58.288 123.388 -59.71 124.67 -61.102 125.984 C-83.075 146.674 -110.667 161.049 -137.285 174.723 C-183.634 198.58 -183.634 198.58 -190.211 219.324 C-190.471 219.877 -190.732 220.43 -191 221 C-206.749 205.251 -175.391 179.026 -164.312 171.125 C-153.364 163.567 -141.804 156.878 -130.398 150.038 C-116.406 141.647 -102.76 133.2 -90 123 C-89.717 122.775 -89.717 122.775 -88.284 121.635 C-65.753 103.552 -48.135 81.978 -35.855 55.812 C-35.114 54.241 -34.343 52.683 -33.566 51.129 C-15.99 13.402 -21.956 -35.792 -48 -68 C-48.602 -68.777 -49.204 -69.555 -49.824 -70.355 C-58.075 -80.405 -69.33 -86.638 -81 -92 C-80.466 -91.66 -79.933 -91.319 -79.383 -90.969 C-46.282 -69.436 -46.282 -69.436 -50 -62 C-51.828 -63.492 -51.828 -63.492 -54.25 -65.875 C-88.886 -97.907 -140.806 -99.126 -182.191 -81.039 C-185 -80 -185 -80 -187 -81 C-177.784 -92.653 -160.856 -99.285 -147 -103 C-145.888 -103.318 -144.775 -103.637 -143.629 -103.965 C-72.031 -120.982 -4.61 -73.079 0 0 Z " fill="#000000" transform="translate(404,161)"/>
<path d="M0 0 C0.99 0.33 1.98 0.66 3 1 C0 1 0 1 0 0 Z " fill="#000000" transform="translate(125,297)"/>
<path d="M0 0 C2 1 2 1 2 1 Z " fill="#000000" transform="translate(123,296)"/>
<path d="" fill="#000000" transform="translate(0,0)"/>
</svg>
