<?xml version="1.0" encoding="UTF-8"?>
<!-- Generator: visioncortex VTracer 0.6.12 -->
<svg version="1.1" xmlns="http://www.w3.org/2000/svg" width="421" height="412">
<path d="M0 0 C1.131 0.188 2.261 0.376 3.426 0.57 C18.083 3.175 33.136 8.367 44.75 18 C51.32 22.043 58.574 18.716 65.52 16.621 C68 16 68 16 72 16 C72.33 15.34 72.66 14.68 73 14 C73.66 14.33 74.32 14.66 75 15 C75 14.34 75 13.68 75 13 C89.463 12.082 83.975 27.489 82.712 38.273 C82.453 40.514 82.222 42.755 82 45 C81.941 45.557 81.941 45.557 81.641 48.375 C82.146 52.064 83.519 52.521 86.75 54.188 C102.885 62.75 106.51 79.882 105.84 97.066 C106 99 106 99 108 100 C111.074 107.517 111.439 114.993 111 123 C110.981 123.721 110.961 124.441 110.941 125.184 C110.349 134.112 105.154 141.831 99 148 C98.415 148.597 97.83 149.194 97.227 149.809 C87.734 158.817 72.026 165.342 59 161 C57.895 162.555 57.895 162.555 56.812 164.875 C50.279 177.361 36.877 189.451 22 189 C21.67 189.66 21.34 190.32 21 191 C19 191.043 17 191.041 15 191 C11.745 192.627 13.719 193.964 15.211 196.805 C15.714 197.781 16.216 198.756 16.734 199.762 C17.276 200.789 17.817 201.816 18.375 202.875 C19.43 204.89 20.48 206.909 21.523 208.93 C21.76 209.379 21.76 209.379 22.958 211.656 C25.333 217 25.333 217 22 217 C21.67 217.66 21.34 218.32 21 219 C13.376 221.09 6.211 222.948 1 216 C0.33 215.196 -0.341 214.391 -1.031 213.562 C-2.584 211.69 -4.119 209.803 -5.637 207.902 C-8.592 204.273 -11.723 200.84 -14.918 197.422 C-17 195 -17 195 -18.488 192.516 C-23.111 184.889 -29.256 184.216 -37.527 182.852 C-44.196 181.707 -49.776 179.526 -55.25 175.5 C-56.06 174.912 -56.869 174.324 -57.703 173.719 C-58.461 173.152 -59.219 172.584 -60 172 C-60.758 171.474 -61.516 170.948 -62.297 170.406 C-64 169 -64 169 -64 167 C-64.66 167 -65.32 167 -66 167 C-68.122 165.144 -69.413 163.38 -71 161 C-73.328 161.879 -73.328 161.879 -76.25 163.562 C-91.924 171.819 -107.905 173.16 -125 169 C-125.757 168.854 -126.513 168.709 -127.293 168.559 C-129 168 -129 168 -129 166 C-129.887 165.711 -130.774 165.423 -131.688 165.125 C-135.201 163.932 -137.184 162.359 -140 160 C-140.99 159.67 -141.98 159.34 -143 159 C-144.711 157.379 -146.37 155.703 -148 154 C-148.976 153.029 -149.955 152.062 -150.938 151.098 C-151.958 150.086 -152.979 149.074 -154 148.062 C-154.508 147.563 -155.016 147.063 -155.539 146.549 C-158.909 143.2 -162.135 139.797 -165 136 C-165.625 135.26 -166.25 134.519 -166.894 133.756 C-171.499 127.493 -171.499 127.493 -167.515 126.183 C-162.99 125.873 -158.535 125.888 -154.004 125.973 C-152.302 125.972 -150.601 125.967 -148.899 125.958 C-144.381 125.945 -139.864 125.984 -135.346 126.035 C-129.005 126.098 -122.663 126.092 -116.322 126.092 C-112.937 126.091 -109.553 126.112 -106.169 126.148 C-104.616 126.158 -103.063 126.167 -101.51 126.176 C-100.806 126.188 -100.102 126.2 -99.376 126.212 C-90.746 126.237 -90.746 126.237 -89 121 C-88.34 120.67 -87.68 120.34 -87 120 C-92.613 117.306 -97.293 115.891 -103.553 115.811 C-104.111 115.802 -104.111 115.802 -106.936 115.76 C-108.143 115.746 -109.35 115.733 -110.594 115.719 C-111.85 115.7 -113.107 115.682 -114.401 115.663 C-118.434 115.604 -122.467 115.551 -126.5 115.5 C-156.621 115.109 -156.621 115.109 -168.719 114.656 C-169.53 114.636 -170.342 114.615 -171.178 114.594 C-177.823 114.296 -179.588 112.479 -182.125 106.625 C-182.458 105.875 -182.79 105.125 -183.133 104.352 C-192.175 79.832 -175.732 53.865 -149 57 C-144.391 58.713 -141.316 61.424 -138.312 65.25 C-134.701 69.544 -134.701 69.544 -131 69 C-130.727 55.641 -142.391 50.901 -153.812 49.457 C-156 49 -156 49 -157 47 C-156.34 47 -155.68 47 -155 47 C-154.465 45.383 -154.465 45.383 -153.938 43.125 C-151.27 34.656 -140.776 22 -131 22 C-130.67 21.34 -130.34 20.68 -130 20 C-125.412 18.905 -120.82 18.817 -116.125 18.812 C-115.437 18.8 -114.748 18.788 -114.039 18.775 C-109 18.76 -109 18.76 -109 21 C-108.402 21.227 -107.804 21.454 -107.188 21.688 C-100.53 25.682 -101.885 33.707 -102.383 40.402 C-101.817 44.242 -100.475 43.752 -97 43 C-94.746 39.619 -94.755 38.394 -94.812 34.438 C-94.819 33.467 -94.825 32.496 -94.832 31.496 C-95 29 -95 29 -96 27 C-95.67 26.34 -95.34 25.68 -95 25 C-95.66 24.67 -96.32 24.34 -97 24 C-97.474 23.196 -97.949 22.391 -98.438 21.562 C-100 19 -100 19 -103 17 C-98.849 3.605 -77.812 0.821 -66.125 0.812 C-65.252 0.8 -64.38 0.788 -63.48 0.775 C-53.563 0.753 -44.519 2.118 -44.486 13.936 C-44.473 15.107 -44.459 16.278 -44.446 17.485 C-44.448 18.113 -44.448 18.113 -44.461 21.289 C-44.443 23.268 -44.425 25.247 -44.406 27.226 C-44.385 29.99 -44.382 32.754 -44.378 35.519 C-44.371 40.365 -44.344 45.211 -44.303 50.057 C-44.284 52.636 -44.274 55.214 -44.276 57.793 C-44.269 58.958 -44.263 60.123 -44.255 61.323 C-44.254 62.349 -44.253 63.376 -44.252 64.433 C-43.742 69.63 -41.699 70.98 -37 69 C-36.381 66.749 -36.381 66.749 -36.388 63.733 C-36.383 63.171 -36.383 63.171 -36.358 60.324 C-36.371 59.098 -36.385 57.872 -36.398 56.609 C-36.39 55.357 -36.382 54.106 -36.374 52.816 C-36.355 49.477 -36.356 46.139 -36.368 42.8 C-36.384 38.109 -36.379 33.418 -36.354 28.727 C-36.342 26.229 -36.345 23.73 -36.364 21.231 C-36.362 20.663 -36.362 20.663 -36.353 17.784 C-36.357 16.786 -36.361 15.787 -36.365 14.758 C-34.443 0.234 -11.535 -2.384 0 0 Z M-107 87 C-101.613 89.323 -100.128 86.209 -97.375 82 C-90.068 71.791 -82.19 67.636 -69.773 65.508 C-65.305 64.69 -65.68 63.268 -66 59 C-77.861 53.069 -115.628 72.44 -107 87 Z " fill="#0069B3" transform="translate(252,87)"/>
<path d="M0 0 C0.873 -0.012 1.745 -0.024 2.645 -0.037 C12.562 -0.059 21.606 1.305 21.639 13.124 C21.652 14.295 21.666 15.466 21.679 16.673 C21.677 17.3 21.677 17.3 21.664 20.477 C21.682 22.455 21.7 24.434 21.719 26.413 C21.74 29.178 21.743 31.942 21.747 34.706 C21.754 39.552 21.781 44.398 21.822 49.244 C21.841 51.823 21.851 54.402 21.849 56.98 C21.856 58.145 21.862 59.31 21.87 60.51 C21.871 61.537 21.872 62.563 21.873 63.621 C22.284 67.806 23.143 69.093 27.375 69.5 C33.126 70.938 27.067 78.216 24.859 81.707 C24.216 82.73 23.573 83.753 22.91 84.807 C22.239 85.86 21.567 86.914 20.875 88 C20.547 88.521 20.547 88.521 18.887 91.158 C15.424 96.641 11.903 102.036 8.08 107.275 C6.377 110.686 7.655 112.645 10.125 115.188 C14.033 112.198 16.419 107.861 19 103.75 C19.965 102.237 20.931 100.726 21.898 99.215 C22.414 98.409 22.929 97.603 23.46 96.773 C26.474 92.092 29.546 87.451 32.625 82.812 C33.224 81.903 33.824 80.994 34.441 80.057 C35.007 79.205 35.573 78.354 36.156 77.477 C36.407 77.099 36.407 77.099 37.674 75.186 C46.528 62.992 54.125 76.305 59.812 84.375 C60.961 85.995 62.11 87.613 63.262 89.23 C63.764 89.942 64.266 90.654 64.784 91.387 C68.611 96.525 69.644 94.093 73.188 90 C73.682 89.445 74.177 88.89 74.686 88.318 C77.698 84.911 80.589 81.419 83.438 77.875 C87.692 72.582 92.292 67.68 96.957 62.753 C101.254 58.188 105.238 53.486 109.137 48.574 C111.096 46.222 113.166 44.116 115.375 42 C116.283 41.072 117.19 40.144 118.125 39.188 C113.651 39.188 109.486 40.595 105.193 41.766 C97.273 43.84 88.502 45.314 90.125 34.188 C92.778 31.751 95.179 30.675 98.646 29.821 C99.534 29.598 100.422 29.375 101.337 29.145 C102.288 28.917 103.239 28.688 104.219 28.453 C105.202 28.211 106.186 27.969 107.2 27.719 C109.276 27.21 111.354 26.706 113.433 26.207 C116.617 25.44 119.795 24.653 122.973 23.863 C124.992 23.371 127.011 22.88 129.031 22.391 C129.982 22.154 130.934 21.918 131.913 21.674 C132.801 21.464 133.689 21.253 134.604 21.036 C135.382 20.848 136.16 20.659 136.963 20.465 C149.707 18.831 142.691 44.813 141.937 52.96 C141.813 54.317 141.693 55.674 141.577 57.032 C141.411 58.966 141.225 60.899 141.039 62.832 C140.935 63.96 140.832 65.087 140.725 66.249 C139.503 72.232 135.329 76.055 129.416 72.021 C127.536 69.351 128.057 67.601 128.473 64.406 C130.373 46.644 130.373 46.644 126.848 48.18 C123.826 51.217 121.258 54.631 118.706 58.064 C116.709 60.747 114.579 63.307 112.438 65.875 C111.722 66.766 111.007 67.656 110.27 68.574 C108.126 71.186 105.901 73.691 103.625 76.188 C100.529 79.583 97.573 83.049 94.688 86.625 C90.787 91.445 86.689 96.039 82.492 100.602 C79.777 103.568 77.13 106.588 74.5 109.629 C66.583 118.603 60.625 108.605 55.75 101.75 C55.027 100.77 54.304 99.789 53.559 98.779 C48.416 91.77 48.416 91.77 47.125 89.188 C43.509 89.188 42.214 93.576 40.5 96.438 C39.591 97.924 38.681 99.41 37.77 100.895 C37.319 101.63 36.869 102.366 36.405 103.124 C34.125 106.8 31.696 110.372 29.277 113.957 C26.057 118.79 22.928 123.682 19.805 128.578 C19.356 129.277 18.908 129.975 18.445 130.695 C18.046 131.321 17.646 131.946 17.235 132.59 C10.371 142.468 4.641 130.601 0.75 124.438 C0.357 123.829 -0.036 123.221 -0.44 122.594 C-2.246 119.796 -3.981 117 -5.617 114.098 C-10.312 106.009 -12.561 109.304 -16.625 116.125 C-20.253 119.45 -23.521 117.583 -27.875 116.188 C-31.109 115.226 -34.058 115.041 -37.428 114.998 C-37.986 114.99 -37.986 114.99 -40.811 114.947 C-42.018 114.934 -43.225 114.92 -44.469 114.906 C-45.725 114.888 -46.982 114.869 -48.276 114.85 C-52.309 114.792 -56.342 114.739 -60.375 114.688 C-90.496 114.297 -90.496 114.297 -102.594 113.844 C-103.405 113.823 -104.217 113.803 -105.053 113.781 C-111.698 113.484 -113.463 111.667 -116 105.812 C-116.333 105.062 -116.665 104.312 -117.008 103.539 C-126.05 79.02 -109.607 53.052 -82.875 56.188 C-78.266 57.9 -75.191 60.611 -72.188 64.438 C-68.576 68.732 -68.576 68.732 -64.875 68.188 C-64.602 54.829 -76.266 50.088 -87.688 48.645 C-89.875 48.188 -89.875 48.188 -90.875 46.188 C-90.215 46.188 -89.555 46.188 -88.875 46.188 C-88.34 44.57 -88.34 44.57 -87.812 42.312 C-85.145 33.843 -74.651 21.188 -64.875 21.188 C-64.545 20.528 -64.215 19.868 -63.875 19.188 C-59.287 18.093 -54.695 18.005 -50 18 C-49.312 17.988 -48.623 17.976 -47.914 17.963 C-42.875 17.948 -42.875 17.948 -42.875 20.188 C-42.277 20.414 -41.679 20.641 -41.062 20.875 C-34.405 24.869 -35.76 32.894 -36.258 39.59 C-35.692 43.429 -34.35 42.94 -30.875 42.188 C-28.621 38.806 -28.63 37.581 -28.688 33.625 C-28.694 32.654 -28.7 31.684 -28.707 30.684 C-28.875 28.188 -28.875 28.188 -29.875 26.188 C-29.545 25.528 -29.215 24.868 -28.875 24.188 C-29.535 23.858 -30.195 23.528 -30.875 23.188 C-31.349 22.383 -31.824 21.579 -32.312 20.75 C-33.875 18.188 -33.875 18.188 -36.875 16.188 C-32.724 2.792 -11.687 0.009 0 0 Z M-40.875 86.188 C-35.488 88.511 -34.003 85.396 -31.25 81.188 C-23.943 70.979 -16.065 66.823 -3.648 64.695 C0.82 63.877 0.445 62.455 0.125 58.188 C-11.736 52.257 -49.503 71.627 -40.875 86.188 Z " fill="#00B6F5" transform="translate(185.875,87.8125)"/>
<path d="M0 0 C0.694 0 1.387 0.001 2.102 0.001 C3.579 0.004 5.056 0.012 6.533 0.025 C8.774 0.043 11.015 0.045 13.256 0.045 C31.685 0.108 31.685 0.108 33.246 3.23 C34.422 3.313 35.597 3.395 36.809 3.48 C48.91 4.596 60.974 11.101 71.246 17.23 C71.841 17.582 72.437 17.934 73.05 18.296 C74.801 19.379 74.801 19.379 77.246 21.23 C73.333 22.535 72.12 21.575 68.371 19.98 C33.652 6.062 -9.135 11.781 -37.754 36.23 C-38.154 36.552 -38.154 36.552 -40.176 38.18 C-60.126 54.939 -70.212 80.687 -70.066 106.418 C-70.064 107.414 -70.061 108.41 -70.058 109.436 C-69.938 118.008 -68.728 125.898 -66.754 134.23 C-66.564 135.201 -66.375 136.172 -66.18 137.172 C-65.021 143.097 -65.021 143.097 -62.754 144.23 C-62.06 146.221 -61.398 148.223 -60.754 150.23 C-58.182 155.802 -58.182 155.802 -55.754 158.23 C-55.28 159.303 -54.805 160.375 -54.316 161.48 C-47.473 175.497 -34.536 188.366 -22.754 198.23 C-21.713 199.142 -20.674 200.057 -19.637 200.973 C-12.289 207.427 -4.724 213.292 3.302 218.871 C18.388 229.424 33.115 240.423 47.246 252.23 C47.549 252.483 47.549 252.483 49.084 253.758 C51.04 255.388 52.988 257.027 54.934 258.668 C55.559 259.189 56.184 259.709 56.828 260.246 C61.246 264.001 61.246 264.001 61.246 266.23 C61.807 266.499 62.368 266.767 62.945 267.043 C76.767 274.177 87.545 292.047 81.289 306.652 C80.246 309.23 80.246 309.23 79.734 312.059 C79.246 314.23 79.246 314.23 77.246 314.23 C75.979 312.779 74.783 311.267 73.621 309.73 C67.59 302.012 60.669 295.579 53.246 289.23 C52.204 288.325 51.162 287.418 50.121 286.512 C44.034 281.228 37.877 276.049 31.559 271.043 C30.971 270.573 30.383 270.104 29.777 269.62 C27.271 267.655 25.293 266.246 22.246 265.23 C20.892 263.918 19.558 262.585 18.246 261.23 C17.586 260.9 16.926 260.57 16.246 260.23 C16.246 259.57 16.246 258.91 16.246 258.23 C14.921 257.547 13.586 256.884 12.246 256.23 C9.607 254.183 7.053 252.049 4.488 249.91 C2.246 248.23 2.246 248.23 0.246 248.23 C-0.084 247.24 -0.414 246.25 -0.754 245.23 C22.592 252.467 45.464 270.707 65.352 284.455 C67.279 285.769 69.254 287.016 71.246 288.23 C68.585 283.355 63.599 280.176 59.246 276.918 C58.494 276.351 57.743 275.783 56.968 275.198 C39.664 262.23 39.664 262.23 35.246 262.23 C35.246 261.24 35.246 260.25 35.246 259.23 C33.603 258.508 31.93 257.852 30.246 257.23 C27.583 255.43 25.027 253.519 22.453 251.594 C20.246 250.23 20.246 250.23 18.246 251.23 C18.246 250.24 18.246 249.25 18.246 248.23 C16.059 247.23 16.059 247.23 13.246 246.23 C8.434 243.605 8.434 243.605 7.246 241.23 C5.589 240.54 3.921 239.877 2.246 239.23 C-2.566 236.605 -2.566 236.605 -3.754 234.23 C-4.847 233.942 -5.94 233.653 -7.066 233.355 C-10.934 232.176 -12.116 231.141 -14.754 228.23 C-16.968 226.928 -18.187 226.23 -20.754 226.23 C-20.754 225.24 -20.754 224.25 -20.754 223.23 C-21.496 223.086 -22.239 222.942 -23.004 222.793 C-26.457 222.087 -27.316 220.726 -29.754 218.23 C-31.378 217.013 -33.026 215.828 -34.691 214.668 C-39.785 211.03 -44.544 207.117 -49.25 203 C-51.541 201.014 -53.735 199.242 -56.367 197.727 C-59.283 195.899 -60.955 193.815 -63.066 191.105 C-65.845 187.598 -68.65 184.199 -71.691 180.918 C-75.142 177.077 -78.227 173.033 -81.254 168.855 C-81.477 168.552 -81.477 168.552 -82.605 167.014 C-85.754 162.592 -85.754 162.592 -85.754 159.23 C-86.414 158.9 -87.074 158.57 -87.754 158.23 C-90.754 152.807 -90.754 152.807 -90.754 150.23 C-91.414 149.9 -92.074 149.57 -92.754 149.23 C-110.404 106.462 -101.644 55.848 -64.754 26.23 C-64.094 25.57 -63.434 24.91 -62.754 24.23 C-59.82 22.131 -56.786 20.185 -53.754 18.23 C-52.964 17.719 -52.174 17.207 -51.359 16.68 C-36.246 7.23 -36.246 7.23 -28.754 7.23 C-28.424 6.57 -28.094 5.91 -27.754 5.23 C-27.424 5.395 -27.424 5.395 -25.754 6.23 C-25.754 5.57 -25.754 4.91 -25.754 4.23 C-20.495 2.832 -14.948 2.073 -9.504 2.23 C-5.648 2.23 -5.766 -0.018 0 0 Z " fill="#0084D1" transform="translate(128.75390625,53.76953125)"/>
<path d="M0 0 C6.41 -0.153 12.519 0.843 18.815 1.968 C19.863 2.142 20.911 2.316 21.991 2.495 C22.985 2.669 23.979 2.843 25.003 3.022 C25.904 3.18 26.805 3.337 27.733 3.499 C29.815 4.093 29.815 4.093 30.815 6.093 C33.676 6.735 36.542 7.116 39.444 7.53 C41.815 8.093 41.815 8.093 41.815 10.093 C42.455 10.217 43.094 10.34 43.753 10.468 C50.901 11.926 56.886 15.6 62.815 19.718 C64.815 21.093 64.815 21.093 67.565 22.655 C70.397 24.465 72.461 26.694 74.815 29.093 C75.675 29.953 76.535 30.812 77.421 31.698 C86.815 41.093 86.815 41.093 89.815 46.093 C90.475 46.753 91.135 47.413 91.815 48.093 C94.815 52.708 94.815 52.708 94.815 55.093 C95.475 55.423 96.135 55.753 96.815 56.093 C97.941 58.373 98.963 60.625 99.94 62.968 C100.218 63.606 100.495 64.244 100.78 64.901 C102.007 67.796 102.815 69.917 102.815 73.093 C103.475 73.423 104.135 73.753 104.815 74.093 C105.413 75.983 105.413 75.983 105.878 78.343 C106.044 79.163 106.211 79.982 106.382 80.827 C106.525 81.575 106.668 82.322 106.815 83.093 C106.98 83.918 107.145 84.743 107.315 85.593 C107.48 86.418 107.645 87.243 107.815 88.093 C107.974 88.713 108.132 89.333 108.295 89.972 C109.686 95.597 110.096 100.812 110.003 106.593 C109.995 107.448 109.987 108.303 109.979 109.184 C109.902 115.073 109.725 120.959 109.44 126.843 C109.41 127.576 109.379 128.308 109.347 129.063 C109.053 134.093 109.053 134.093 106.815 134.093 C106.472 135.964 106.472 135.964 106.315 138.53 C104.777 157.612 104.777 157.612 99.815 160.093 C99.815 160.938 99.815 161.784 99.815 162.655 C99.815 165.093 99.815 165.093 97.815 165.093 C97.253 167.343 97.253 167.343 96.815 170.093 C96.059 174.093 96.059 174.093 93.815 174.093 C93.148 176.092 92.481 178.093 91.815 180.093 C90.452 182.701 88.895 185.174 87.315 187.655 C86.874 188.353 86.433 189.052 85.978 189.771 C79.738 199.494 72.685 208.403 64.823 216.874 C63.422 218.423 62.08 220.026 60.788 221.667 C59.013 223.85 57.27 225.596 55.128 227.405 C54.441 227.993 53.754 228.581 53.046 229.187 C52.31 229.816 51.574 230.445 50.815 231.093 C49.187 232.526 47.562 233.964 45.94 235.405 C45.201 236.061 44.461 236.718 43.698 237.394 C42.371 238.591 41.079 239.829 39.815 241.093 C38.497 242.011 37.161 242.903 35.815 243.78 C32.307 246.094 28.829 248.444 25.378 250.843 C24.554 251.415 23.731 251.987 22.882 252.577 C20.815 254.093 20.815 254.093 18.815 256.093 C17.482 256.759 16.149 257.426 14.815 258.093 C14.155 258.753 13.495 259.413 12.815 260.093 C2.821 266.241 -7.673 271.523 -18.122 276.843 C-20.311 277.959 -22.498 279.077 -24.685 280.196 C-26.029 280.883 -27.374 281.569 -28.719 282.253 C-40.222 288.131 -40.222 288.131 -43.185 291.093 C-44.482 291.828 -45.797 292.533 -47.122 293.218 C-61.525 301.112 -76.084 311.942 -81.185 328.093 C-89.543 323.913 -80.832 304.046 -77.185 299.093 C-76.982 298.803 -76.982 298.803 -75.954 297.339 C-62.148 279.292 -38.189 267.65 -19.104 256.237 C-0.362 245.029 17.821 233.037 33.815 218.093 C34.383 217.563 34.951 217.034 35.537 216.488 C45.156 207.422 54.119 197.549 60.815 186.093 C61.706 184.818 62.602 183.548 63.503 182.28 C71.631 170.149 79.342 155.155 81.358 140.663 C81.815 138.093 81.815 138.093 82.792 135.276 C86.091 125.013 86.055 113.635 85.565 102.968 C85.527 102.104 85.489 101.24 85.449 100.35 C85.209 96.312 84.765 92.573 83.706 88.663 C82.815 85.093 82.815 85.093 83.815 82.093 C83.155 81.763 82.495 81.433 81.815 81.093 C81.288 79.167 81.288 79.167 80.878 76.78 C80.167 73.148 79.283 70.931 76.815 68.093 C77.475 68.093 78.135 68.093 78.815 68.093 C78.171 66.448 78.171 66.448 77.003 64.28 C75.71 61.858 74.689 59.712 73.815 57.093 C67.511 45.77 52.744 20.093 37.815 20.093 C42.843 25.444 48.447 30.217 54.19 34.78 C56.608 36.91 57.581 38.213 58.815 41.093 C59.475 41.423 60.135 41.753 60.815 42.093 C59.211 46.907 58.412 44.122 55.565 41.28 C49.728 35.788 42.339 29.469 34.433 27.499 C32.815 27.093 32.815 27.093 32.815 25.093 C30.846 24.341 28.835 23.698 26.815 23.093 C25.435 22.619 24.056 22.14 22.679 21.655 C12.164 18.024 2.221 14.776 -9.028 15.093 C-11.186 15.093 -13.177 14.849 -15.31 14.53 C-33.433 12.405 -51.934 17.735 -68.507 24.538 C-69.351 24.882 -70.194 25.227 -71.063 25.581 C-71.812 25.896 -72.56 26.211 -73.331 26.535 C-75.185 27.093 -75.185 27.093 -77.185 26.093 C-62.325 7.926 -33.928 1.608 -11.81 0.53 C-11.01 0.487 -10.211 0.444 -9.388 0.399 C-6.259 0.24 -3.13 0.133 0 0 Z M27.815 15.093 C32.32 19.34 32.32 19.34 34.815 18.093 C32.32 15.782 31.288 15.093 27.815 15.093 Z " fill="#0890D6" transform="translate(294.1845703125,53.9072265625)"/>
<path d="M0 0 C-0.124 1.357 -0.244 2.714 -0.36 4.072 C-0.526 6.006 -0.712 7.939 -0.898 9.872 C-0.949 10.436 -0.949 10.436 -1.212 13.289 C-2.434 19.272 -6.608 23.096 -12.521 19.062 C-14.4 16.391 -13.879 14.641 -13.464 11.446 C-11.563 -6.316 -11.563 -6.316 -15.089 -4.78 C-18.111 -1.743 -20.678 1.671 -23.231 5.104 C-25.228 7.787 -27.357 10.347 -29.499 12.915 C-29.857 13.361 -29.857 13.361 -31.667 15.614 C-33.81 18.226 -36.035 20.731 -38.312 23.228 C-41.407 26.624 -44.363 30.089 -47.249 33.665 C-51.15 38.485 -55.248 43.079 -59.444 47.642 C-62.16 50.608 -64.806 53.628 -67.437 56.669 C-75.354 65.643 -81.312 55.645 -86.187 48.79 C-86.91 47.81 -87.633 46.829 -88.378 45.819 C-93.52 38.81 -93.52 38.81 -94.812 36.228 C-98.428 36.228 -99.723 40.616 -101.437 43.478 C-102.345 44.964 -103.256 46.45 -104.167 47.935 C-104.617 48.67 -105.068 49.406 -105.532 50.164 C-107.811 53.84 -110.241 57.412 -112.659 60.997 C-115.879 65.83 -119.009 70.722 -122.132 75.618 C-122.58 76.317 -123.029 77.016 -123.491 77.735 C-123.891 78.361 -124.29 78.986 -124.702 79.63 C-131.566 89.508 -137.295 77.641 -141.187 71.478 C-141.383 71.174 -141.383 71.174 -142.377 69.635 C-144.182 66.836 -145.917 64.04 -147.554 61.138 C-152.249 53.049 -154.498 56.344 -158.562 63.165 C-162.223 66.522 -165.432 64.654 -169.812 63.228 C-170.946 63.021 -172.08 62.815 -173.249 62.603 C-176.877 59.41 -164.563 48.379 -161.687 45.29 C-161.383 44.955 -161.383 44.955 -159.847 43.257 C-159.255 42.619 -158.663 41.982 -158.054 41.325 C-157.79 41.039 -157.79 41.039 -156.456 39.591 C-148.421 32.927 -143.281 43.695 -139.687 49.728 C-138.646 51.449 -137.602 53.167 -136.554 54.884 C-136.099 55.645 -135.643 56.406 -135.174 57.191 C-130.98 63.46 -130.98 63.46 -127.948 58.665 C-127.398 57.815 -126.847 56.965 -126.28 56.088 C-125.692 55.144 -125.105 54.2 -124.499 53.228 C-123.247 51.282 -121.994 49.337 -120.741 47.392 C-120.096 46.378 -119.452 45.363 -118.787 44.318 C-115.626 39.373 -112.376 34.488 -109.124 29.603 C-108.537 28.709 -107.949 27.816 -107.344 26.896 C-106.793 26.064 -106.242 25.233 -105.675 24.376 C-105.434 24.011 -105.434 24.011 -104.215 22.163 C-95.401 10.011 -87.757 23.421 -82.124 31.415 C-80.976 33.035 -79.826 34.653 -78.675 36.271 C-78.424 36.627 -78.424 36.627 -77.153 38.428 C-73.325 43.565 -72.292 41.133 -68.749 37.04 C-68.255 36.485 -67.76 35.93 -67.25 35.358 C-64.239 31.951 -61.348 28.46 -58.499 24.915 C-54.245 19.622 -49.645 14.72 -44.98 9.793 C-40.683 5.229 -36.698 0.526 -32.8 -4.386 C-30.841 -6.738 -28.771 -8.844 -26.562 -10.96 C-25.654 -11.888 -24.747 -12.816 -23.812 -13.772 C-28.286 -13.772 -32.451 -12.365 -36.743 -11.194 C-44.664 -9.12 -53.434 -7.646 -51.812 -18.772 C-49.158 -21.209 -46.757 -22.284 -43.29 -23.139 C-42.402 -23.362 -41.515 -23.585 -40.6 -23.815 C-39.649 -24.043 -38.698 -24.272 -37.718 -24.507 C-36.734 -24.749 -35.751 -24.991 -34.737 -25.241 C-32.66 -25.75 -30.582 -26.254 -28.504 -26.753 C-25.32 -27.52 -22.142 -28.307 -18.964 -29.097 C-16.945 -29.589 -14.925 -30.08 -12.905 -30.569 C-11.954 -30.806 -11.003 -31.042 -10.023 -31.285 C-9.135 -31.496 -8.248 -31.707 -7.333 -31.924 C-6.555 -32.112 -5.776 -32.301 -4.974 -32.495 C7.771 -34.129 0.754 -8.147 0 0 Z " fill="#FBFDFE" transform="translate(327.8116455078125,140.77236938476563)"/>
<path d="M0 0 C0.705 6.653 1.651 12.719 3.929 19.034 C5.839 27.595 -0.862 28.853 -7.562 31.312 C-8.634 31.71 -9.705 32.107 -10.809 32.516 C-23.543 36.697 -36.596 36.468 -49.562 33.312 C-50.319 33.167 -51.076 33.021 -51.855 32.871 C-53.562 32.312 -53.562 32.312 -53.562 30.312 C-54.449 30.024 -55.336 29.735 -56.25 29.438 C-59.763 28.244 -61.746 26.672 -64.562 24.312 C-65.058 24.148 -65.058 24.148 -67.562 23.312 C-69.273 21.691 -70.933 20.015 -72.562 18.312 C-73.539 17.342 -74.518 16.375 -75.5 15.41 C-76.521 14.398 -77.542 13.387 -78.562 12.375 C-79.07 11.875 -79.578 11.376 -80.102 10.861 C-83.472 7.513 -86.698 4.109 -89.562 0.312 C-89.875 -0.058 -89.875 -0.058 -91.457 -1.931 C-96.061 -8.195 -96.061 -8.195 -92.077 -9.505 C-87.552 -9.815 -83.098 -9.8 -78.566 -9.715 C-76.865 -9.715 -75.163 -9.72 -73.462 -9.729 C-68.943 -9.743 -64.427 -9.703 -59.908 -9.652 C-53.567 -9.59 -47.226 -9.595 -40.885 -9.596 C-37.5 -9.596 -34.116 -9.576 -30.731 -9.539 C-29.178 -9.53 -27.625 -9.521 -26.073 -9.511 C-25.72 -9.505 -25.72 -9.505 -23.939 -9.475 C-15.308 -9.451 -15.308 -9.451 -13.562 -14.688 C-4.315 -23.935 -0.658 -6.597 0 0 Z " fill="#009FE6" transform="translate(176.5625,222.6875)"/>
<path d="M0 0 C3.191 6.382 0.781 16.1 0.062 23 C0.019 23.419 0.019 23.419 -0.2 25.537 C-0.569 28.88 -0.931 31.794 -2 35 C-2.19 36.578 -2.34 38.161 -2.465 39.746 C-2.504 40.206 -2.504 40.206 -2.701 42.533 C-2.858 44.465 -3.012 46.398 -3.162 48.33 C-3.202 48.791 -3.202 48.791 -3.402 51.121 C-3.469 51.961 -3.536 52.801 -3.605 53.666 C-4.438 58.591 -4.697 60 -10 60 C-10.072 56.734 -9.886 53.816 -9.516 50.586 C-9.421 49.624 -9.327 48.661 -9.229 47.67 C-8.921 44.569 -8.586 41.472 -8.25 38.375 C-7.934 35.299 -7.623 32.222 -7.313 29.145 C-7.119 27.225 -6.918 25.306 -6.712 23.388 C-5.031 7.468 -5.031 7.468 -14.17 9.82 C-14.576 9.922 -14.576 9.922 -16.627 10.437 C-17.494 10.664 -18.361 10.891 -19.254 11.125 C-20.151 11.351 -21.048 11.576 -21.973 11.809 C-24.838 12.531 -27.701 13.264 -30.562 14 C-33.428 14.736 -36.294 15.468 -39.163 16.191 C-40.948 16.64 -42.731 17.098 -44.512 17.563 C-45.319 17.766 -46.127 17.97 -46.959 18.18 C-47.669 18.363 -48.378 18.545 -49.11 18.734 C-51.746 19.105 -54.237 19.419 -53.688 16.125 C-49.163 10.427 -37.933 9.195 -31.226 7.356 C-29.239 6.809 -27.254 6.254 -25.27 5.697 C-24.64 5.524 -24.64 5.524 -21.453 4.645 C-20.31 4.328 -19.167 4.012 -17.989 3.687 C-15 3 -15 3 -11 3 C-10.67 2.34 -10.34 1.68 -10 1 C-9.34 1.33 -8.68 1.66 -8 2 C-8 -1.858 -2.948 -0.424 0 0 Z " fill="#039BE4" transform="translate(335,100)"/>
<path d="M0 0 C0.75 0.009 1.5 0.019 2.272 0.029 C9.261 0.22 22.275 1.818 21.25 11.25 C18.163 15.137 14.621 12.964 10.797 10.836 C7.125 9.178 4.573 8.974 0.562 9 C-0.613 8.992 -1.789 8.985 -3 8.977 C-8.542 9.619 -12.246 11.537 -15.5 16.062 C-18.651 19.983 -21.518 21.295 -25.438 17.375 C-26.314 5.11 -9.793 -0.19 0 0 Z " fill="#78DFFC" transform="translate(293.4375,208.625)"/>
<path d="M0 0 C-3.167 3.167 -7.347 0.357 -10.062 -1.938 C-16.066 -6.966 -21.283 -5.958 -28.883 -5.547 C-32.876 -6.127 -35.361 -8.883 -32.875 -12.75 C-23.385 -19.077 1.676 -14.119 0 0 Z " fill="#7ADFFC" transform="translate(342,200)"/>
<path d="M0 0 C-1.208 11.467 -22.126 13.552 -30.465 10.445 C-33.015 7.895 -32.936 6.784 -31.277 3.633 C-28.147 2.85 -25.339 2.662 -22.129 2.574 C-16.27 2.235 -12.99 0.487 -8.418 -3.188 C-4.672 -5.252 -0.532 -4.541 0 0 Z " fill="#77DFFC" transform="translate(250.27734375,234.3671875)"/>
<path d="M0 0 C-0.99 0 -1.98 0 -3 0 C-3 -1 -3 -1 0 0 Z " fill="#06649C" transform="translate(128,298)"/>
<path d="M0 0 C2 1 2 1 2 1 Z " fill="#0A6FAC" transform="translate(123,296)"/>
<path d="" fill="#0000FF" transform="translate(0,0)"/>
<path d="" fill="#000000" transform="translate(0,0)"/>
<path d="" fill="#000000" transform="translate(0,0)"/>
<path d="" fill="#000000" transform="translate(0,0)"/>
<path d="" fill="#008080" transform="translate(0,0)"/>
<path d="" fill="#000000" transform="translate(0,0)"/>
<path d="" fill="#000000" transform="translate(0,0)"/>
<path d="" fill="#0000FF" transform="translate(0,0)"/>
<path d="" fill="#000000" transform="translate(0,0)"/>
<path d="" fill="#00FFFF" transform="translate(0,0)"/>
<path d="" fill="#000000" transform="translate(0,0)"/>
<path d="" fill="#0000FF" transform="translate(0,0)"/>
<path d="" fill="#0000FF" transform="translate(0,0)"/>
<path d="" fill="#00FFFF" transform="translate(0,0)"/>
<path d="" fill="#0000FF" transform="translate(0,0)"/>
<path d="" fill="#008080" transform="translate(0,0)"/>
<path d="" fill="#000000" transform="translate(0,0)"/>
<path d="" fill="#0000FF" transform="translate(0,0)"/>
<path d="" fill="#008080" transform="translate(0,0)"/>
<path d="" fill="#0000FF" transform="translate(0,0)"/>
<path d="" fill="#0000FF" transform="translate(0,0)"/>
<path d="" fill="#0000FF" transform="translate(0,0)"/>
<path d="" fill="#0000FF" transform="translate(0,0)"/>
<path d="" fill="#0000FF" transform="translate(0,0)"/>
<path d="" fill="#0000FF" transform="translate(0,0)"/>
<path d="" fill="#0000FF" transform="translate(0,0)"/>
<path d="" fill="#0000FF" transform="translate(0,0)"/>
<path d="" fill="#008080" transform="translate(0,0)"/>
<path d="" fill="#00AAAA" transform="translate(0,0)"/>
<path d="" fill="#0080BF" transform="translate(0,0)"/>
<path d="" fill="#008080" transform="translate(0,0)"/>
<path d="" fill="#00FFFF" transform="translate(0,0)"/>
<path d="" fill="#00FFFF" transform="translate(0,0)"/>
<path d="" fill="#0000FF" transform="translate(0,0)"/>
<path d="" fill="#0000FF" transform="translate(0,0)"/>
<path d="" fill="#00FFFF" transform="translate(0,0)"/>
<path d="" fill="#0080FF" transform="translate(0,0)"/>
<path d="" fill="#00FFFF" transform="translate(0,0)"/>
<path d="" fill="#0080FF" transform="translate(0,0)"/>
<path d="" fill="#00FFFF" transform="translate(0,0)"/>
<path d="" fill="#00FFFF" transform="translate(0,0)"/>
<path d="" fill="#00FFFF" transform="translate(0,0)"/>
<path d="" fill="#00FFFF" transform="translate(0,0)"/>
<path d="" fill="#00FFFF" transform="translate(0,0)"/>
<path d="" fill="#00BFFF" transform="translate(0,0)"/>
<path d="" fill="#00FFFF" transform="translate(0,0)"/>
<path d="" fill="#057ABA" transform="translate(0,0)"/>
<path d="" fill="#0080FF" transform="translate(0,0)"/>
<path d="" fill="#00FFFF" transform="translate(0,0)"/>
<path d="" fill="#00FFFF" transform="translate(0,0)"/>
</svg>
